<?xml version="1.0" encoding="UTF-8"?>
<svg id="Camada_2" data-name="Camada 2" xmlns="http://www.w3.org/2000/svg" viewBox="0 0 512.71 534.63">
  <defs>
    <style>
      .cls-1 {
        fill: #fff;
      }
    </style>
  </defs>
  <g id="Camada_1-2" data-name="Camada 1">
    <path class="cls-1" d="M321.14,534.63C164.79,534.63,30.15,423.33,1,269.97h0c-.63-3.73-1-8-1-11.73,0-36.69,29.85-66.53,66.53-66.53h46.56C121.78,84.55,211.77,0,321.14,0c78.03,0,148.96,42.99,185.12,112.2h-.03c4.29,9.02,6.47,18.68,6.47,28.73,0,36.83-29.96,66.79-66.79,66.79H128.4c0,.34,0,.68,0,1.03,0,106.28,86.46,192.74,192.74,192.74,31.47,0,62.66-7.74,90.27-22.4l.31-.18c10.27-6.12,22.05-9.35,34.07-9.35,36.75,0,66.64,29.9,66.64,66.64,0,24.79-13.62,47.38-35.56,58.96l-7.07,3.74-.03-.05c-45.71,23.44-96.92,35.79-148.63,35.79ZM16.77,267.26c27.83,145.68,155.79,251.37,304.37,251.37,51.76,0,102.98-13.01,148.13-37.63l2.94-1.6c15.01-9.19,24.21-25.46,24.21-43.21,0-27.92-22.72-50.64-50.64-50.64-14.2,0-26.18,7.3-26.18,7.3-30.08,16.12-64.12,24.64-98.46,24.64-115.1,0-208.74-93.64-208.74-208.74,0-.34,0-.68,0-1.03h-45.87c-27.86,0-50.53,22.67-50.53,50.53,0,2.81.29,6.18.77,9.01ZM129.14,191.72h316.78c28,0,50.79-22.78,50.79-50.79,0-7.69-1.67-15.08-4.98-21.95h.01c-33.5-63.54-98.8-102.98-170.61-102.98-100.54,0-183.35,77.38-192,175.72Z"/>
  </g>
</svg>