<?xml version="1.0" encoding="UTF-8"?>
<svg id="Camada_2" data-name="Camada 2" xmlns="http://www.w3.org/2000/svg" viewBox="0 0 375.47 374.96">
  <defs>
    <style>
      .cls-1 {
        fill: #b999c2;
      }
    </style>
  </defs>
  <g id="Camada_1-2" data-name="Camada 1">
    <path class="cls-1" d="M176.28.35c151.27-8.93,251,156.79,170.72,286.22-74.44,120-250.42,117.23-321.44-4.68C-44.69,161.31,37.84,8.51,176.28.35ZM137.28,73.1c-37.28,2.56-61.7,23.74-65.13,61.62,6.15,62.45-26.92,162.1,66.41,167.65,58.38-5.3,155.82,24.04,164.61-61.13-6.17-63.09,27.3-163.22-67.08-168.4-29.13-1.6-69.8-1.74-98.81.25Z"/>
    <path class="cls-1" d="M186.8,94.05l4.98.61c38.37.16,85.87-8.37,90.43,43.81-2.04,32.28,2.67,67.78-.13,99.68-4.49,51.16-56.95,42.95-94.65,42.94-15.52,0-33.67.52-48.91-.44-27.23-1.7-42.79-16.68-45.37-43.88,1.79-32.07-2.28-66.53,0-98.31,3.88-53.99,55.18-42.34,93.65-44.42ZM245.97,115.05c-2.92.61-7.04,4.04-8.19,6.79-4.81,11.5,7.62,22.1,18.1,15.11,11.09-7.4,3.64-24.74-9.91-21.9ZM179.26,127.08c-46.07,5.19-68.48,62.24-39.57,98.4,30.21,37.79,91.76,27.22,106.12-19.1,13.52-43.63-21.58-84.37-66.55-79.3Z"/>
    <path class="cls-1" d="M180.75,148.82c48.98-6.63,63.35,59.33,21.38,75.38-32.47,12.41-63.75-19.25-50.81-51.56,4.67-11.66,16.78-22.11,29.43-23.82Z"/>
  </g>
</svg>