<?xml version="1.0" encoding="UTF-8"?>
<svg id="Camada_2" data-name="Camada 2" xmlns="http://www.w3.org/2000/svg" viewBox="0 0 812.33 534.86">
  <defs>
    <style>
      .cls-1 {
        fill: #fff;
      }
    </style>
  </defs>
  <g id="Camada_1-2" data-name="Camada 1">
    <path class="cls-1" d="M620.76,534.63c-156.35,0-290.99-111.3-320.15-264.66h0c-.63-3.73-1-8-1-11.73,0-36.69,29.85-66.53,66.53-66.53h46.56C421.4,84.55,511.4,0,620.76,0c78.03,0,148.96,42.99,185.12,112.2h-.03c4.29,9.02,6.47,18.68,6.47,28.73,0,36.83-29.96,66.79-66.79,66.79h-317.52c0,.34,0,.68,0,1.03,0,106.28,86.46,192.74,192.74,192.74,31.47,0,62.66-7.74,90.27-22.4l.31-.18c10.27-6.12,22.05-9.35,34.07-9.35,36.75,0,66.64,29.9,66.64,66.64,0,24.79-13.62,47.38-35.56,58.96l-7.07,3.74-.03-.05c-45.71,23.44-96.92,35.79-148.63,35.79ZM316.39,267.26c27.83,145.68,155.79,251.37,304.37,251.37,51.76,0,102.98-13.01,148.13-37.63l2.94-1.6c15.01-9.19,24.21-25.46,24.21-43.21,0-27.92-22.72-50.64-50.64-50.64-14.2,0-26.18,7.3-26.18,7.3-30.08,16.12-64.12,24.64-98.46,24.64-115.1,0-208.74-93.64-208.74-208.74,0-.34,0-.68,0-1.03h-45.87c-27.86,0-50.53,22.67-50.53,50.53,0,2.81.29,6.18.77,9.01ZM428.77,191.72h316.78c28,0,50.79-22.78,50.79-50.79,0-7.69-1.67-15.08-4.98-21.95h.01c-33.5-63.54-98.8-102.98-170.61-102.98-100.54,0-183.35,77.38-192,175.72Z"/>
    <path class="cls-1" d="M0,534.86v-22.79l129.09-93.58H0v-21.83h165.56v22.55l-129.09,93.58h129.09v22.07H0Z"/>
    <path class="cls-1" d="M0,357.86v-107.25h20.64v85.18h51.35v-76.06h20.64v76.06h52.31v-85.18h20.63v107.25H0Z"/>
    <polygon class="cls-1" points="165.65 56.34 0 0 0 21.17 128.81 64.73 0 97.65 0 113.74 128.81 146.45 0 190.22 0 211.81 165.65 155.26 165.65 138.51 38.19 105.7 165.65 73.09 165.65 56.34"/>
  </g>
</svg>