<?xml version="1.0" encoding="UTF-8"?>
<svg id="Camada_2" data-name="Camada 2" xmlns="http://www.w3.org/2000/svg" viewBox="0 0 384 384">
  <defs>
    <style>
      .cls-1 {
        fill: #b999c2;
      }
    </style>
  </defs>
  <g id="Camada_1-2" data-name="Camada 1">
    <path class="cls-1" d="M204.07,0l19.65,2.47c82.08,13.48,147.88,81.14,158.67,163.76.59,4.51.46,9.45,1.61,13.77v23.25l-4.26,29.11c-16.41,78.02-82.64,139.82-161.9,150.04-4.44.57-9.51.32-13.77,1.6h-23.99l-28.35-4.26C78.66,364.28,19.79,305.52,4.41,232.36L.15,204c.34-7.93-.46-16.09,0-24C5.74,84.39,85.32,5.31,180.83,0h23.24ZM231.81,90.75h-32.99v134.62c0,2.29-1.86,9.04-2.63,11.62-11.36,38.43-63.48,21.97-57.92-13.69,2.73-17.52,22.42-23.44,37.31-26.06v-33.75c-29.37-.76-58.84,16.48-67.49,45.36-16.44,54.94,40.87,107.48,92.33,73.61,31.27-20.58,31.79-51.52,32.17-85.56l-.78-39.41c14.68,7.37,29.41,14.89,46.48,13.5v-33c-26.86-.19-44.76-21.49-46.48-47.25Z"/>
  </g>
</svg>