<?xml version="1.0" encoding="UTF-8"?>
<svg id="Camada_2" data-name="Camada 2" xmlns="http://www.w3.org/2000/svg" xmlns:xlink="http://www.w3.org/1999/xlink" viewBox="0 0 828.97 219.7">
  <defs>
    <style>
      .cls-1 {
        fill: #1d1d1b;
      }

      .cls-2 {
        fill: none;
      }

      .cls-3 {
        fill: #a92f3a;
      }

      .cls-4 {
        clip-path: url(#clippath);
      }
    </style>
    <clipPath id="clippath">
      <rect class="cls-2" width="828.97" height="219.7"/>
    </clipPath>
  </defs>
  <g id="Camada_1-2" data-name="Camada 1">
    <g class="cls-4">
      <path class="cls-3" d="M26.46,98.92l-.17-.31C3.08,52.61.99,33.28,4.15,0H0v218.44h49.98c10.25-48.23-.55-79.88-23.52-119.52"/>
      <path class="cls-3" d="M16.38,0c-3.14,32.05-1.37,49.19,20.71,92.97,14.92,25.77,23.19,46.24,26.81,66.36,3.33,18.43,2.88,37.48-1.48,59.11h10.48c9.2-7.73,22.3-25.94,22.3-50.42V56.75h12.17v111.27c0,19.47-6.99,34.48-12.86,43.66-1.5,2.36-3.15,4.63-4.86,6.77h58.42c-14.94-40-27.68-93.11-12.9-161.7h12.46c-15.56,69.29-1.72,122.36,13.46,161.7h32.79V0H16.38Z"/>
      <path class="cls-1" d="M235.37,88.9c0-24.04,15.38-38.83,42.72-38.83,21.21,0,34.8,8.36,40.62,24.94,1.19,3.13.15,5.38-3.14,6.57l-8.21,2.83c-3.59,1.21-5.07.45-6.42-3.13-3.29-9.12-10.91-13.74-22.86-13.74-15.38,0-23.9,7.47-23.9,21.22v33c0,13.75,8.51,21.36,23.9,21.36,11.8,0,19.42-4.63,22.86-13.89,1.64-3.74,2.98-4.47,6.57-3.13l8.06,2.83c3.29,1.2,4.33,3.45,3.29,6.58-5.82,16.73-19.42,25.09-40.78,25.09-27.33,0-42.72-14.63-42.72-38.98v-32.71Z"/>
      <path class="cls-1" d="M374.13,87.7c-1.79-5.37-2.99-12.25-3.43-15.68l-.15-2.54h-1.05c0,5.66-1.05,11.65-3.28,18.07l-11.51,31.66h30.77l-11.35-31.52ZM418.04,153.42c1.19,3.29,0,4.93-3.43,4.93h-7.78c-6.12,0-8.06-.9-9.26-4.49l-6.87-19.26h-41.22l-7.02,19.26c-1.19,3.59-3.13,4.49-9.25,4.49h-6.88c-3.43,0-4.62-1.64-3.43-4.93l37.34-97.08c1.34-3.44,2.69-4.18,6.27-4.18h7.92c3.59,0,5.08.9,6.27,4.02l37.35,97.24Z"/>
      <path class="cls-1" d="M524.36,52.3c3.74,0,5.08,1.34,5.08,5.08v95.88c0,3.74-1.35,5.08-5.08,5.08h-7.62c-3.73,0-5.08-1.34-5.08-5.08v-45.55c0-8.96,1.19-18.82,3.58-29.73h-1.04c-2.84,8.67-7.02,17.79-12.26,27.34l-14.63,25.84c-1.49,2.39-3.44,3.59-5.83,3.59h-4.77c-3.15,0-4.19-.6-5.84-3.59l-14.93-25.99c-4.63-7.77-8.36-16.88-11.49-27.19h-1.05c2.09,10.17,3.15,20.17,3.15,29.87v45.41c0,3.74-1.35,5.08-5.08,5.08h-7.18c-3.73,0-5.22-1.34-5.22-5.08V57.39c0-3.74,1.49-5.08,5.22-5.08h6.58c4.19,0,5.52.75,7.17,3.88l31.06,55.56,31.07-55.41c1.79-3.44,2.84-4.03,6.87-4.03h7.32Z"/>
      <path class="cls-1" d="M596.37,113.1h-28.23v27.77h28.23c9.4,0,14.19-4.63,14.19-13.74s-4.78-14.04-14.19-14.04M593.69,96.07c9.1,0,13.74-4.33,13.74-13.15s-4.64-13.14-13.74-13.14h-25.54v26.29h25.54ZM595.93,52.3c19.26,0,30.62,10.01,30.62,27.93,0,10.6-3.74,18.07-11.36,22.55v.6c10.15,3.58,15.23,12.25,15.23,25.83,0,18.38-13.44,29.13-33.6,29.13h-42.28c-3.73,0-5.22-1.34-5.22-5.08V57.39c0-3.74,1.5-5.08,5.22-5.08h41.38Z"/>
      <path class="cls-1" d="M662.74,122.05c0,13.6,7.92,21.06,23,21.06s23-7.46,23-21.06V57.39c0-3.74,1.34-5.08,5.07-5.08h8.52c3.73,0,5.07,1.34,5.07,5.08v64.53c0,23.89-14.79,38.67-41.67,38.67s-41.82-14.78-41.82-38.67V57.39c0-3.74,1.35-5.08,5.07-5.08h8.66c3.74,0,5.08,1.34,5.08,5.08v64.67Z"/>
      <path class="cls-1" d="M806.52,85.16c0-4.93-1.35-8.81-4.04-11.5-2.68-2.54-6.57-3.89-11.64-3.89h-25.84v30.77h25.84c4.93,0,8.81-1.34,11.64-4.03,2.69-2.53,4.04-6.42,4.04-11.35M792.63,52.31c20.91,0,33.6,12.4,33.6,32.86,0,15.38-7.17,25.98-19.71,30.17,1.8,1.5,3.43,3.59,4.78,6.42l16.43,31.52c1.79,3.44.9,5.08-2.53,5.08h-8.67c-6.57,0-8.36-.75-10.15-4.48l-12.55-25.4c-4.03-8.36-7.62-10.45-17.76-10.45h-11.06v35.24c0,3.74-1.34,5.08-5.07,5.08h-8.51c-3.74,0-5.23-1.34-5.23-5.08V57.39c0-3.74,1.49-5.08,5.23-5.08h41.22Z"/>
      <path class="cls-1" d="M234.86,202.16c0-5.65,3.49-9.02,9.85-9.02,5.36,0,8.26,2.02,9.57,6.15.17.54.1.75-.43.93l-1.12.4c-.46.1-.75-.04-.93-.43-1.01-3.2-3.02-4.65-7.08-4.65-4.71,0-7.22,2.42-7.22,6.59v8.56c0,4.12,2.58,6.57,7.22,6.57,4.14,0,6.15-1.47,7.15-4.75.19-.43.51-.57.94-.46l1.12.43c.43.18.58.47.43.9-1.29,4.17-4.2,6.29-9.63,6.29-6.29,0-9.85-3.38-9.85-9.02v-8.48Z"/>
      <path class="cls-1" d="M275.58,202.16c0-4.2-2.55-6.62-7.27-6.62s-7.3,2.42-7.3,6.62v8.48c0,4.2,2.59,6.61,7.3,6.61s7.27-2.41,7.27-6.61v-8.48ZM258.44,202.16c0-5.65,3.52-9.02,9.88-9.02s9.85,3.38,9.85,9.02v8.48c0,5.64-3.52,9.02-9.85,9.02s-9.88-3.38-9.88-9.02v-8.48Z"/>
      <path class="cls-1" d="M302.25,193.64c.54,0,.72.18.72.72v24.08c0,.54-.18.73-.72.73h-1.15c-.36,0-.61-.14-.76-.39l-11.47-16.47c-.5-.75-1.08-1.76-1.72-3.02-.65-1.26-1.05-1.94-1.15-2.12h-.14c0,.18.07,1.04.22,2.55.1,1.51.18,2.77.18,3.81v14.91c0,.47-.22.73-.7.73h-1.1c-.54,0-.73-.18-.73-.73v-24.08c0-.54.18-.72.73-.72h1.15c.32,0,.57.12.75.36l11.19,16.14c.54.79,1.18,1.83,1.9,3.13.68,1.29,1.11,2.04,1.29,2.3h.1c0-.26-.07-1.15-.21-2.74-.14-1.54-.21-2.87-.21-3.94v-14.57c0-.46.25-.68.72-.68h1.11Z"/>
      <path class="cls-1" d="M317.85,193.13c4.89,0,7.59,1.69,9.45,5.53.21.4.07.73-.39.94l-1.11.51c-.47.17-.64.14-.94-.32-1.43-2.87-3.45-4.17-7-4.17-4.27,0-6.62,1.68-6.62,4.74.15,2.23,1.16,3.3,3.25,3.91,1.43.47,2.33.62,4.2.8,2.12.24,3.23.4,5,1.04.89.32,1.57.72,2.12,1.19,1.04.93,1.9,2.62,1.9,4.82,0,4.73-3.45,7.55-9.78,7.55-5.14,0-8.05-1.98-9.73-6.19-.15-.46,0-.79.43-.97l1.11-.38c.39-.15.72,0,.94.43,1.33,3.12,3.74,4.67,7.26,4.67,4.78,0,7.15-1.69,7.15-5.03-.14-2.23-1.07-3.28-2.98-3.89-1.36-.43-2.26-.53-4.02-.71-1.11-.11-2.05-.25-2.73-.37-.68-.1-1.51-.35-2.48-.67-.97-.32-1.72-.72-2.27-1.19-1.11-.93-2.01-2.59-2.01-4.85,0-4.5,3.42-7.37,9.27-7.37"/>
      <path class="cls-1" d="M347.82,193.64c.54,0,.72.18.72.72v1c0,.54-.17.72-.72.72h-7.26v22.35c0,.54-.17.73-.71.73h-1.19c-.53,0-.71-.18-.71-.73v-22.35h-7.26c-.54,0-.72-.18-.72-.72v-1c0-.54.18-.72.72-.72h17.14Z"/>
      <path class="cls-1" d="M363.16,196.08h-8.05v9.92h8.05c3.2,0,5.1-1.76,5.1-4.93s-1.83-4.99-5.1-4.99M363.42,193.64c4.75,0,7.55,2.73,7.55,7.44,0,3.92-2.16,6.48-5.79,7.05.94.43,1.73,1.26,2.34,2.48l4.02,7.83c.32.47.17.73-.36.73h-1.19c-.75,0-1.22-.21-1.4-.64l-3.48-6.94c-1.15-2.3-2.37-3.13-5.14-3.13h-4.86v9.99c0,.54-.14.73-.69.73h-1.18c-.54,0-.72-.18-.72-.73v-24.08c0-.54.18-.72.72-.72h10.17Z"/>
      <path class="cls-1" d="M379.45,210.5c0,4.27,2.4,6.75,7.05,6.75s7.04-2.48,7.04-6.75v-16.15c0-.54.18-.71.72-.71h1.19c.54,0,.72.17.72.71v16.11c0,5.74-3.37,9.24-9.67,9.24s-9.68-3.5-9.68-9.24v-16.11c0-.54.18-.71.72-.71h1.19c.53,0,.71.17.71.71v16.15Z"/>
      <path class="cls-1" d="M418.02,193.64c.54,0,.71.18.71.72v1c0,.54-.17.72-.71.72h-7.27v22.35c0,.54-.17.73-.72.73h-1.19c-.54,0-.71-.18-.71-.73v-22.35h-7.27c-.54,0-.72-.18-.72-.72v-1c0-.54.18-.72.72-.72h17.15Z"/>
      <path class="cls-1" d="M438.5,202.16c0-4.2-2.55-6.62-7.26-6.62s-7.3,2.42-7.3,6.62v8.48c0,4.2,2.59,6.61,7.3,6.61s7.26-2.41,7.26-6.61v-8.48ZM421.36,202.16c0-5.65,3.52-9.02,9.89-9.02s9.85,3.38,9.85,9.02v8.48c0,5.64-3.53,9.02-9.85,9.02s-9.89-3.38-9.89-9.02v-8.48Z"/>
      <path class="cls-1" d="M457.3,196.08h-8.05v9.92h8.05c3.2,0,5.1-1.76,5.1-4.93s-1.84-4.99-5.1-4.99M457.55,193.64c4.75,0,7.55,2.73,7.55,7.44,0,3.92-2.16,6.48-5.79,7.05.94.43,1.73,1.26,2.34,2.48l4.03,7.83c.32.47.17.73-.36.73h-1.19c-.75,0-1.22-.21-1.4-.64l-3.49-6.94c-1.15-2.3-2.37-3.13-5.14-3.13h-4.86v9.99c0,.54-.14.73-.68.73h-1.19c-.53,0-.72-.18-.72-.73v-24.08c0-.54.18-.72.72-.72h10.18Z"/>
      <path class="cls-1" d="M480.27,198.5c-.32-.98-.51-1.81-.51-2.49h-.18c0,.75-.14,1.57-.43,2.49l-4.34,11.03h9.77l-4.31-11.03ZM490.83,218.48c.18.46.03.68-.49.68h-1.05c-.76,0-1.18-.21-1.3-.65l-2.69-6.82h-11.25l-2.7,6.82c-.14.56-.4.65-1.26.65h-.97c-.49,0-.64-.21-.47-.68l9.64-24.33c.14-.39.43-.61.89-.61h1.08c.47,0,.79.18.93.58l9.63,24.37Z"/>
      <path class="cls-1" d="M517.96,193.64c.47,0,.68.26.68.72v1c0,.47-.21.72-.68.72h-12.69v8.91h11.07c.47,0,.69.25.69.72v1.01c0,.47-.21.71-.69.71h-11.07v9.28h13.16c.46,0,.68.25.68.71v1.01c0,.47-.21.73-.68.73h-15.02c-.55,0-.72-.18-.72-.73v-24.08c0-.54.17-.72.72-.72h14.55Z"/>
      <path class="cls-1" d="M533.2,194.36c0-.54.18-.71.72-.71h1.19c.54,0,.68.17.68.71v24.08c0,.54-.14.72-.68.72h-1.19c-.53,0-.72-.18-.72-.72v-24.08Z"/>
      <path class="cls-1" d="M561.06,193.64c.54,0,.71.18.71.72v24.08c0,.54-.18.73-.71.73h-1.15c-.36,0-.61-.14-.76-.39l-11.47-16.47c-.5-.75-1.08-1.76-1.72-3.02-.65-1.26-1.05-1.94-1.15-2.12h-.14c0,.18.07,1.04.21,2.55.11,1.51.18,2.77.18,3.81v14.91c0,.47-.21.73-.69.73h-1.11c-.54,0-.72-.18-.72-.73v-24.08c0-.54.18-.72.72-.72h1.15c.32,0,.57.12.75.36l11.18,16.14c.54.79,1.19,1.83,1.91,3.13.68,1.29,1.11,2.04,1.29,2.3h.1c0-.26-.07-1.15-.21-2.74-.14-1.54-.21-2.87-.21-3.94v-14.57c0-.46.25-.68.73-.68h1.11Z"/>
      <path class="cls-1" d="M567.42,202.16c0-5.65,3.5-9.02,9.85-9.02,5.36,0,8.26,2.02,9.56,6.15.18.54.11.75-.42.93l-1.12.4c-.47.1-.75-.04-.94-.43-1-3.2-3.02-4.65-7.08-4.65-4.7,0-7.22,2.42-7.22,6.59v8.56c0,4.12,2.59,6.57,7.22,6.57,4.14,0,6.15-1.47,7.15-4.75.18-.43.51-.57.94-.46l1.11.43c.43.18.58.47.43.9-1.29,4.17-4.2,6.29-9.63,6.29-6.29,0-9.85-3.38-9.85-9.02v-8.48Z"/>
      <path class="cls-1" d="M608.07,202.16c0-4.2-2.55-6.62-7.27-6.62s-7.3,2.42-7.3,6.62v8.48c0,4.2,2.59,6.61,7.3,6.61s7.27-2.41,7.27-6.61v-8.48ZM590.93,202.16c0-5.65,3.52-9.02,9.88-9.02s9.85,3.38,9.85,9.02v8.48c0,5.64-3.52,9.02-9.85,9.02s-9.88-3.38-9.88-9.02v-8.48Z"/>
      <path class="cls-1" d="M626.86,196.08h-8.05v9.92h8.05c3.2,0,5.1-1.76,5.1-4.93s-1.83-4.99-5.1-4.99M627.12,193.64c4.75,0,7.55,2.73,7.55,7.44,0,3.92-2.16,6.48-5.79,7.05.94.43,1.74,1.26,2.35,2.48l4.02,7.83c.31.47.18.73-.37.73h-1.18c-.75,0-1.22-.21-1.4-.64l-3.48-6.94c-1.15-2.3-2.37-3.13-5.14-3.13h-4.86v9.99c0,.54-.14.73-.68.73h-1.19c-.54,0-.72-.18-.72-.73v-24.08c0-.54.18-.72.72-.72h10.17Z"/>
      <path class="cls-1" d="M650.63,207.15c3.48,0,5.64-2.07,5.64-5.53s-2.16-5.53-5.64-5.53h-7.52v11.07h7.52ZM650.84,193.64c5.03,0,8.12,2.99,8.12,7.98s-3.09,7.95-8.12,7.95h-7.73v8.87c0,.54-.15.73-.68.73h-1.19c-.54,0-.72-.18-.72-.73v-24.08c0-.53.18-.72.72-.72h9.6Z"/>
      <path class="cls-1" d="M679.99,202.16c0-4.2-2.55-6.62-7.27-6.62s-7.3,2.42-7.3,6.62v8.48c0,4.2,2.59,6.61,7.3,6.61s7.27-2.41,7.27-6.61v-8.48ZM662.84,202.16c0-5.65,3.52-9.02,9.88-9.02s9.85,3.38,9.85,9.02v8.48c0,5.64-3.52,9.02-9.85,9.02s-9.88-3.38-9.88-9.02v-8.48Z"/>
      <path class="cls-1" d="M698.56,196.08h-8.05v9.92h8.05c3.2,0,5.1-1.76,5.1-4.93s-1.84-4.99-5.1-4.99M698.82,193.64c4.75,0,7.55,2.73,7.55,7.44,0,3.92-2.16,6.48-5.79,7.05.94.43,1.74,1.26,2.34,2.48l4.02,7.83c.32.47.17.73-.36.73h-1.19c-.75,0-1.22-.21-1.4-.64l-3.48-6.94c-1.15-2.3-2.37-3.13-5.15-3.13h-4.85v9.99c0,.54-.14.73-.68.73h-1.19c-.53,0-.71-.18-.71-.73v-24.08c0-.54.18-.72.71-.72h10.18Z"/>
      <path class="cls-1" d="M721.1,198.5c-.32-.98-.51-1.81-.51-2.49h-.18c0,.75-.14,1.57-.43,2.49l-4.34,11.03h9.77l-4.31-11.03ZM731.67,218.48c.18.46.03.68-.5.68h-1.05c-.75,0-1.18-.21-1.29-.65l-2.69-6.82h-11.25l-2.7,6.82c-.14.56-.39.65-1.26.65h-.97c-.49,0-.64-.21-.46-.68l9.63-24.33c.14-.39.43-.61.9-.61h1.08c.47,0,.79.18.93.58l9.64,24.37Z"/>
      <path class="cls-1" d="M752.08,203.13c0-4.49-2.76-7.05-7.8-7.05h-5.71v20.63h5.71c5.03,0,7.8-2.55,7.8-7.05v-6.54ZM744.28,193.64c6.62,0,10.43,3.6,10.43,9.49v6.54c0,5.9-3.81,9.5-10.43,9.5h-7.59c-.54,0-.71-.18-.71-.73v-24.08c0-.53.17-.72.71-.72h7.59Z"/>
      <path class="cls-1" d="M776.78,202.16c0-4.2-2.55-6.62-7.27-6.62s-7.3,2.42-7.3,6.62v8.48c0,4.2,2.59,6.61,7.3,6.61s7.27-2.41,7.27-6.61v-8.48ZM759.63,202.16c0-5.65,3.52-9.02,9.88-9.02s9.85,3.38,9.85,9.02v8.48c0,5.64-3.52,9.02-9.85,9.02s-9.88-3.38-9.88-9.02v-8.48Z"/>
      <path class="cls-1" d="M795.35,196.08h-8.05v9.92h8.05c3.2,0,5.1-1.76,5.1-4.93s-1.83-4.99-5.1-4.99M795.61,193.64c4.75,0,7.55,2.73,7.55,7.44,0,3.92-2.16,6.48-5.79,7.05.94.43,1.73,1.26,2.34,2.48l4.02,7.83c.32.47.17.73-.36.73h-1.19c-.75,0-1.22-.21-1.4-.64l-3.48-6.94c-1.15-2.3-2.37-3.13-5.14-3.13h-4.86v9.99c0,.54-.14.73-.68.73h-1.19c-.54,0-.72-.18-.72-.73v-24.08c0-.54.18-.72.72-.72h10.17Z"/>
      <path class="cls-1" d="M818.32,198.5c-.32-.98-.5-1.81-.5-2.49h-.18c0,.75-.14,1.57-.43,2.49l-4.34,11.03h9.77l-4.31-11.03ZM828.89,218.48c.18.46.03.68-.5.68h-1.05c-.75,0-1.18-.21-1.3-.65l-2.68-6.82h-11.26l-2.7,6.82c-.14.56-.39.65-1.26.65h-.97c-.49,0-.64-.21-.46-.68l9.63-24.33c.15-.39.43-.61.9-.61h1.08c.47,0,.79.18.93.58l9.64,24.37Z"/>
    </g>
  </g>
</svg>