<?xml version="1.0" encoding="UTF-8"?>
<svg id="Camada_2" data-name="Camada 2" xmlns="http://www.w3.org/2000/svg" viewBox="0 0 1286.9 615.6">
  <defs>
    <style>
      .cls-1, .cls-2 {
        fill: #231f20;
      }

      .cls-3 {
        fill: #ec1b2e;
      }

      .cls-2 {
        font-family: HelveticaNeue-BoldItalic, 'HelveticaNeue BoldItalic';
        font-size: 156.24px;
        font-style: italic;
        font-weight: 700;
      }
    </style>
  </defs>
  <g id="Layer_1" data-name="Layer 1">
    <g>
      <path class="cls-1" d="M60.79,393.41c-11.98-3.5-22.48-8.96-31.51-16.36-9.02-7.4-16.15-16.89-21.4-28.47-5.25-11.58-7.88-25.44-7.88-41.6,0-16.97,2.76-33.12,8.28-48.47,5.52-15.35,13.33-28.88,23.43-40.59,10.1-11.71,22.42-21,36.96-27.87,14.54-6.87,30.83-10.3,48.87-10.3,12.39,0,23.96,1.48,34.73,4.45,10.77,2.96,20.2,7.67,28.27,14.13,8.08,6.47,14.54,14.68,19.39,24.64,4.84,9.96,7.54,21.95,8.08,35.94h-62.2c-.81-9.15-3.43-16.63-7.87-22.41-4.45-5.79-11.78-8.68-22.02-8.68-8.88,0-16.56,2.56-23.02,7.67-6.46,5.12-11.78,11.65-15.95,19.59-4.17,7.94-7.27,16.63-9.29,26.05-2.02,9.43-3.03,18.45-3.03,27.06,0,11.58,2.63,21.41,7.87,29.48,5.25,8.08,14.34,12.12,27.26,12.12,9.43,0,17.7-2.89,24.84-8.68,7.14-5.79,12.32-14.88,15.55-27.26h61.79c-2.69,13.47-7.14,25.45-13.33,35.95-6.2,10.5-13.8,19.32-22.82,26.46-9.02,7.14-19.25,12.65-30.69,16.56-11.44,3.9-23.63,5.85-36.55,5.85s-25.78-1.75-37.77-5.25"/>
      <path class="cls-1" d="M332.81,346.36c7.54-6.06,12.52-14.74,14.94-26.05l4.85-25.44c-4.57,2.15-9.62,3.9-15.15,5.25-5.52,1.35-12.18,2.7-19.99,4.04-4.04.81-8.42,1.55-13.13,2.22-4.71.67-9.02,1.95-12.93,3.84-3.9,1.88-7.13,4.51-9.69,7.87-2.56,3.37-3.84,8.01-3.84,13.93,0,8.08,2.49,14,7.47,17.77,4.98,3.77,11.38,5.66,19.19,5.66,11.31,0,20.73-3.03,28.27-9.09M255.06,393.62c-7.95-2.56-14.88-6.39-20.8-11.51-5.92-5.12-10.57-11.37-13.94-18.78-3.37-7.4-5.05-15.95-5.05-25.65,0-12.65,2.22-23.16,6.67-31.51,4.44-8.34,10.57-15.14,18.38-20.4,7.81-5.25,17.1-9.15,27.87-11.71,10.77-2.56,22.48-4.24,35.14-5.05,10.23-.81,18.98-1.62,26.25-2.42,7.27-.81,13.19-2.09,17.77-3.84,4.58-1.75,7.95-4.1,10.1-7.07,2.16-2.96,3.23-7,3.23-12.12,0-5.92-2.16-10.7-6.46-14.33-4.31-3.64-10.77-5.45-19.39-5.45-20.2,0-32.45,9.02-36.76,27.06h-60.18c3.77-21.54,13.87-38.77,30.29-51.7,16.42-12.93,39.71-19.39,69.87-19.39,12.12,0,23.56,1.22,34.33,3.64,10.77,2.42,20.2,6.73,28.27,12.92,8.62,6.19,14.88,14.88,18.78,26.05,3.91,11.17,4.24,25.24,1.01,42.21l-18.57,95.32c-1.62,7.8-2.29,14.13-2.02,18.98.27,4.85,1.35,8.35,3.23,10.5v2.83h-62.2c-1.35-2.42-2.22-5.66-2.63-9.69-.41-4.04-.61-8.35-.61-12.93h-.81c-7,8.08-15.15,14.75-24.43,19.99-9.29,5.25-19.99,7.88-32.11,7.88-8.89,0-17.3-1.28-25.24-3.84"/>
      <path class="cls-1" d="M458.82,379.28c-9.69-10.23-12.25-26.39-7.67-48.47l20.2-104.2h-26.25l8.08-41.2h26.25l5.92-30.98,67.26-20.54-10.18,51.52h36.75l-8.08,41.2h-36.75l-18.58,96.53c-1.35,8.08-.74,13.73,1.82,16.96,2.56,3.23,7.74,4.84,15.55,4.84,2.42,0,5.25-.06,8.48-.2,3.23-.13,5.52-.34,6.86-.6l-9.29,46.85c-2.16.81-6.13,1.61-11.91,2.42-5.79.81-12.18,1.21-19.19,1.21-23.16,0-39.58-5.11-49.27-15.35"/>
      <path class="cls-1" d="M608.26,392.61c-8.35-3.77-15.08-9.22-20.2-16.36-5.11-7.13-8.48-15.88-10.1-26.25-1.61-10.37-1.07-22.14,1.62-35.34l24.64-129.25h64.62l-23.43,120.36c-2.16,11.85-1.62,21.34,1.62,28.47,3.23,7.14,10.23,10.71,21,10.71,11.31,0,20.66-3.97,28.07-11.91,7.4-7.94,12.59-19.05,15.55-33.32l21.81-114.31h64.62l-39.99,206.8h-61.79l6.06-31.1h-1.21c-7.8,11.31-16.76,20.33-26.85,27.06-10.1,6.73-22.42,10.1-36.96,10.1-11.04,0-20.73-1.88-29.08-5.66"/>
      <path class="cls-1" d="M913.19,346.36c7.54-6.06,12.52-14.74,14.94-26.05l4.85-25.44c-4.58,2.15-9.62,3.9-15.15,5.25-5.52,1.35-12.18,2.7-19.99,4.04-4.04.81-8.42,1.55-13.12,2.22-4.71.67-9.02,1.95-12.93,3.84-3.9,1.88-7.13,4.51-9.69,7.87-2.56,3.37-3.84,8.01-3.84,13.93,0,8.08,2.49,14,7.47,17.77,4.98,3.77,11.38,5.66,19.19,5.66,11.31,0,20.73-3.03,28.27-9.09M835.45,393.62c-7.95-2.56-14.88-6.39-20.8-11.51-5.92-5.12-10.56-11.37-13.93-18.78-3.37-7.4-5.05-15.95-5.05-25.65,0-12.65,2.22-23.16,6.67-31.51,4.44-8.34,10.57-15.14,18.37-20.4,7.81-5.25,17.1-9.15,27.87-11.71,10.77-2.56,22.48-4.24,35.14-5.05,10.23-.81,18.98-1.62,26.25-2.42,7.27-.81,13.2-2.09,17.77-3.84,4.58-1.75,7.95-4.1,10.1-7.07,2.15-2.96,3.23-7,3.23-12.12,0-5.92-2.16-10.7-6.46-14.33-4.31-3.64-10.77-5.45-19.39-5.45-20.2,0-32.45,9.02-36.76,27.06h-60.18c3.77-21.54,13.87-38.77,30.29-51.7,16.42-12.93,39.71-19.39,69.87-19.39,12.12,0,23.56,1.22,34.33,3.64,10.77,2.42,20.2,6.73,28.27,12.92,8.61,6.19,14.88,14.88,18.78,26.05,3.9,11.17,4.24,25.24,1.01,42.21l-18.58,95.32c-1.62,7.8-2.29,14.13-2.02,18.98.27,4.85,1.35,8.35,3.23,10.5v2.83h-62.2c-1.35-2.42-2.22-5.66-2.63-9.69-.41-4.04-.61-8.35-.61-12.93h-.81c-7,8.08-15.15,14.75-24.43,19.99-9.29,5.25-19.99,7.88-32.11,7.88-8.89,0-17.3-1.28-25.24-3.84"/>
      <polygon class="cls-1" points="1115.14 185.41 1075.16 392.2 1010.53 392.2 1050.52 185.41 1115.14 185.41"/>
      <path class="cls-3" d="M1286.9,133.76c0-20.67-31.02-51.69-77.53-51.69s-77.53,31.01-77.53,51.69h155.07Z"/>
      <path class="cls-3" d="M1286.9,154.43c0,20.67-31.02,51.69-77.53,51.69s-77.53-31.01-77.53-51.69h155.07Z"/>
      <path class="cls-3" d="M955.92,23.98c-14.62,14.62-14.62,58.48,18.27,91.38,32.9,32.89,76.75,32.89,91.37,18.27l-109.65-109.65Z"/>
      <path class="cls-3" d="M970.54,9.36c14.62-14.62,58.48-14.62,91.37,18.28,32.9,32.9,32.9,76.76,18.28,91.37l-109.65-109.65Z"/>
    </g>
    <text class="cls-2" transform="translate(616.23 576.54)"><tspan x="0" y="0">Grupo</tspan></text>
  </g>
</svg>