<?xml version="1.0" encoding="UTF-8"?>
<svg id="Camada_2" data-name="Camada 2" xmlns="http://www.w3.org/2000/svg" viewBox="0 0 507.02 163.48">
  <defs>
    <style>
      .cls-1 {
        fill: #20366a;
      }

      .cls-2 {
        fill: #cd2728;
      }
    </style>
  </defs>
  <g id="Camada_1-2" data-name="Camada 1">
    <g>
      <g>
        <polygon class="cls-2" points="232.07 11.95 226.1 11.95 232.3 0 244.35 0 232.07 11.95"/>
        <path class="cls-2" d="M122.19,26.8v38.31h10.56c11.45,0,19.94-6.71,19.94-19.15s-8.49-19.16-19.94-19.16h-10.56ZM133.54,75.58h-23.3V16.34h23.3c19.45,0,31.5,12.24,31.5,29.62s-12.04,29.62-31.5,29.62"/>
        <rect class="cls-2" x="175.6" y="16.34" width="11.95" height="59.24"/>
        <path class="cls-2" d="M215.09,58.6l.69-1.28,8.99-19.36h.79l8.98,19.36.69,1.28h-20.14ZM226.24,16.34h-2.07l-30.41,59.24h13.53l3.76-8.09h28.34l3.85,8.09h13.53l-30.51-59.24Z"/>
        <polygon class="cls-2" points="262.87 75.58 262.87 16.34 274.82 16.34 274.82 65.11 306.41 65.11 306.41 75.58 262.87 75.58"/>
        <path class="cls-2" d="M359.52,45.96c0-11.25-8-19.45-19.15-19.45s-18.95,8.2-18.95,19.45,7.89,19.45,18.95,19.45,19.15-8.2,19.15-19.45M309.07,45.96c0-17.08,11.94-30.9,31.3-30.9s31.4,13.82,31.4,30.9-11.95,30.9-31.4,30.9-31.3-13.82-31.3-30.9"/>
        <path class="cls-2" d="M408.39,41.22h29.62v5.82c0,17.58-9.68,29.82-28.14,29.82-19.45,0-31.29-13.82-31.29-30.9s11.94-30.91,31.5-30.91c15.5,0,22.11,7.51,22.11,7.51l-7.01,9.08s-5.92-5.14-15.3-5.14c-11.26,0-18.96,8.2-18.96,19.45s7.6,19.55,18.86,19.55c9.58,0,15.3-6.02,15.6-13.72v-.79h-16.98v-9.78Z"/>
        <path class="cls-2" d="M494.78,45.96c0-11.25-8-19.45-19.15-19.45s-18.95,8.2-18.95,19.45,7.9,19.45,18.95,19.45,19.15-8.2,19.15-19.45M444.33,45.96c0-17.08,11.95-30.9,31.3-30.9s31.4,13.82,31.4,30.9-11.95,30.9-31.4,30.9-31.3-13.82-31.3-30.9"/>
        <polygon class="cls-1" points="125.13 112.34 111.96 112.34 111.96 121.52 126.93 121.52 126.93 123.12 110.24 123.12 110.24 99.67 126.93 99.67 126.93 101.27 111.96 101.27 111.96 110.73 125.13 110.73 125.13 112.34"/>
        <polygon class="cls-1" points="170.29 123.13 169.7 123.13 152.07 103.42 152.07 123.13 150.35 123.13 150.35 99.67 150.94 99.67 168.57 119.29 168.57 99.67 170.29 99.67 170.29 123.13"/>
        <path class="cls-1" d="M215.01,112.34h-9.73v-1.6h11.45v1.25c0,7.23-4.1,11.68-10.75,11.68-7.34,0-12.04-5.32-12.04-12.19s4.77-12.31,12.12-12.31c5.86,0,8.63,3.13,8.63,3.13l-1.01,1.29s-2.62-2.77-7.62-2.77c-6.57,0-10.4,4.89-10.4,10.67s3.75,10.55,10.32,10.55c5.4,0,9.04-3.56,9.04-9.34v-.35Z"/>
        <polygon class="cls-1" points="255.08 112.34 241.91 112.34 241.91 121.52 256.88 121.52 256.88 123.12 240.19 123.12 240.19 99.67 256.88 99.67 256.88 101.27 241.91 101.27 241.91 110.73 255.08 110.73 255.08 112.34"/>
        <polygon class="cls-1" points="300.24 123.13 299.65 123.13 282.02 103.42 282.02 123.13 280.3 123.13 280.3 99.67 280.89 99.67 298.52 119.29 298.52 99.67 300.24 99.67 300.24 123.13"/>
        <polygon class="cls-1" points="344.49 123.13 342.77 123.13 342.77 112.34 327.37 112.34 327.37 123.13 325.65 123.13 325.65 99.67 327.37 99.67 327.37 110.73 342.77 110.73 342.77 99.67 344.49 99.67 344.49 123.13"/>
        <path class="cls-1" d="M378.19,103.19h-.27l-5.98,12.94-.27.51h12.78l-.24-.51-6.02-12.94ZM377.84,99.67h.47l11.29,23.45h-1.95l-2.38-4.85h-14.38l-2.38,4.85h-1.91l11.25-23.45Z"/>
        <path class="cls-1" d="M420.81,101.27h-7.35v12.08h7.82c3.99,0,7-1.8,7-5.94s-2.97-6.14-7.47-6.14M411.74,99.67h9.07c5.82,0,9.22,2.62,9.22,7.7,0,4.11-2.42,6.53-6.06,7.31v.11l6.53,7.86v.47h-1.84l-6.81-8.17h-8.4v8.17h-1.72v-23.45Z"/>
        <rect class="cls-1" x="454.15" y="99.67" width="1.72" height="23.45"/>
        <path class="cls-1" d="M489.61,103.19h-.27l-5.98,12.94-.28.51h12.78l-.24-.51-6.02-12.94ZM489.26,99.67h.47l11.29,23.45h-1.95l-2.38-4.85h-14.38l-2.38,4.85h-1.91l11.25-23.45Z"/>
        <path class="cls-2" d="M55.43,71.7c.06-.61.1-1.22.1-1.85,0-.02,0-.04,0-.06,0-.02,0-.02,0-.04,0-.07,0-.15,0-.22-.01-.44-.03-.89-.07-1.32-.8-11.87-10.65-21.26-22.72-21.26H0v45.6h32.73c11.65,0,21.24-8.74,22.61-20.02,0-.02,0-.03,0-.04.03-.26.06-.52.08-.78"/>
        <path class="cls-1" d="M32.83,16.34H0v18.91h32.84c19.11,0,34.61,15.5,34.61,34.61s-15.49,34.61-34.61,34.61H0v18.91h32.83c29.56,0,53.51-23.96,53.51-53.51S62.39,16.34,32.83,16.34"/>
      </g>
      <g>
        <path class="cls-1" d="M329.54,162.94c-.79-.34-1.48-.81-2.06-1.41-.58-.6-1.03-1.33-1.36-2.18s-.49-1.8-.49-2.84c0-1.46.25-2.8.76-4.04.51-1.24,1.19-2.31,2.04-3.21.86-.91,1.83-1.62,2.93-2.14,1.1-.52,2.25-.78,3.45-.78.84,0,1.59.11,2.25.33.65.22,1.24.52,1.74.89.51.37.94.8,1.28,1.3.35.5.64,1.01.87,1.54l2.79-10.45h2.44l-6.18,23.12h-2.44l.73-2.79c-.78.89-1.67,1.64-2.68,2.25-1,.61-2.17.92-3.5.92-.93,0-1.79-.17-2.58-.51ZM335.49,160.64c.88-.43,1.65-1,2.33-1.71s1.22-1.53,1.65-2.45.63-1.9.63-2.91c0-.72-.12-1.38-.36-2-.24-.61-.59-1.14-1.03-1.6-.44-.45-.98-.81-1.6-1.08s-1.32-.4-2.07-.4c-.97,0-1.88.21-2.71.63s-1.56.99-2.17,1.69c-.61.71-1.09,1.54-1.44,2.49-.35.95-.52,1.94-.52,2.98,0,.76.11,1.45.33,2.06s.54,1.14.95,1.58.9.78,1.47,1.01c.57.23,1.19.35,1.87.35.91,0,1.8-.22,2.68-.65Z"/>
        <path class="cls-1" d="M348.87,156.06v.32c0,1.5.44,2.7,1.33,3.6.89.9,2.09,1.35,3.61,1.35,1.06,0,1.97-.17,2.76-.51.78-.34,1.54-.81,2.28-1.43l1.27,1.62c-.8.68-1.72,1.25-2.74,1.73-1.02.48-2.25.71-3.69.71-1.08,0-2.06-.17-2.96-.51-.9-.34-1.66-.81-2.3-1.43-.63-.61-1.12-1.35-1.47-2.2-.35-.86-.52-1.8-.52-2.84,0-1.25.24-2.48.71-3.69s1.14-2.3,2-3.25c.86-.95,1.86-1.72,3.02-2.31,1.16-.59,2.43-.89,3.8-.89,1.03,0,1.95.17,2.74.51s1.45.79,1.98,1.36c.53.57.93,1.24,1.2,2,.27.76.41,1.56.41,2.41,0,.55-.05,1.08-.16,1.6s-.24,1.02-.41,1.5h-12.83c-.02.11-.03.22-.03.35ZM359.77,153.91c.1-.32.16-.74.16-1.27,0-.57-.08-1.11-.24-1.62-.16-.51-.41-.95-.74-1.34-.34-.38-.77-.69-1.28-.92-.52-.23-1.12-.35-1.82-.35-.8,0-1.56.14-2.26.43-.71.29-1.35.68-1.92,1.18-.57.5-1.06,1.08-1.47,1.75-.41.67-.72,1.39-.94,2.15h10.52Z"/>
        <path class="cls-1" d="M366.67,162.7c-1.25-.47-2.34-1.19-3.29-2.14l1.58-1.58c.89.87,1.81,1.48,2.77,1.85.96.37,1.94.55,2.93.55.46,0,.91-.06,1.35-.19.43-.13.82-.31,1.16-.55.34-.24.61-.53.81-.86.2-.33.3-.7.3-1.12,0-.53-.22-1.01-.66-1.44-.44-.43-1.26-.88-2.44-1.35-1.48-.57-2.62-1.18-3.42-1.82s-1.2-1.54-1.2-2.68c0-.7.14-1.35.43-1.96.28-.61.7-1.14,1.24-1.6.54-.46,1.19-.81,1.96-1.08.77-.26,1.63-.4,2.58-.4,1.2,0,2.34.23,3.42.68,1.08.45,1.95.98,2.63,1.57l-1.43,1.68c-.68-.55-1.43-1-2.26-1.36s-1.69-.54-2.58-.54c-1.16,0-2.04.26-2.65.79-.6.53-.9,1.13-.9,1.81,0,.27.05.52.14.74.1.22.26.44.51.66.24.22.57.44,1,.66s.96.46,1.62.71c1.48.59,2.59,1.22,3.34,1.88.75.66,1.12,1.54,1.12,2.61,0,.76-.16,1.46-.49,2.09-.33.63-.78,1.18-1.35,1.63s-1.24.81-2,1.06c-.76.25-1.57.38-2.44.38-1.27,0-2.52-.24-3.77-.71Z"/>
        <path class="cls-1" d="M384.78,162.94c-.79-.34-1.48-.81-2.06-1.41-.58-.6-1.03-1.33-1.36-2.18s-.49-1.8-.49-2.84c0-1.46.25-2.8.76-4.04.51-1.24,1.19-2.31,2.04-3.21.86-.91,1.83-1.62,2.93-2.14,1.1-.52,2.25-.78,3.45-.78.84,0,1.59.11,2.25.33.65.22,1.24.52,1.74.89.51.37.94.8,1.28,1.3.35.5.64,1.01.87,1.54l2.79-10.45h2.44l-6.18,23.12h-2.44l.73-2.79c-.78.89-1.67,1.64-2.68,2.25-1,.61-2.17.92-3.5.92-.93,0-1.79-.17-2.58-.51ZM390.73,160.64c.88-.43,1.65-1,2.33-1.71s1.22-1.53,1.65-2.45.63-1.9.63-2.91c0-.72-.12-1.38-.36-2-.24-.61-.59-1.14-1.03-1.6-.44-.45-.98-.81-1.6-1.08s-1.32-.4-2.07-.4c-.97,0-1.88.21-2.71.63s-1.56.99-2.17,1.69c-.61.71-1.09,1.54-1.44,2.49-.35.95-.52,1.94-.52,2.98,0,.76.11,1.45.33,2.06s.54,1.14.95,1.58.9.78,1.47,1.01c.57.23,1.19.35,1.87.35.91,0,1.8-.22,2.68-.65Z"/>
        <path class="cls-1" d="M404.11,156.06v.32c0,1.5.44,2.7,1.33,3.6.89.9,2.09,1.35,3.61,1.35,1.06,0,1.97-.17,2.76-.51.78-.34,1.54-.81,2.28-1.43l1.27,1.62c-.8.68-1.72,1.25-2.74,1.73-1.02.48-2.25.71-3.69.71-1.08,0-2.06-.17-2.96-.51-.9-.34-1.66-.81-2.3-1.43-.63-.61-1.12-1.35-1.47-2.2-.35-.86-.52-1.8-.52-2.84,0-1.25.24-2.48.71-3.69s1.14-2.3,2-3.25c.86-.95,1.86-1.72,3.02-2.31,1.16-.59,2.43-.89,3.8-.89,1.03,0,1.95.17,2.74.51s1.45.79,1.98,1.36c.53.57.93,1.24,1.2,2,.27.76.41,1.56.41,2.41,0,.55-.05,1.08-.16,1.6s-.24,1.02-.41,1.5h-12.83c-.02.11-.03.22-.03.35ZM415.01,153.91c.1-.32.16-.74.16-1.27,0-.57-.08-1.11-.24-1.62-.16-.51-.41-.95-.74-1.34-.34-.38-.77-.69-1.28-.92-.52-.23-1.12-.35-1.82-.35-.8,0-1.56.14-2.26.43-.71.29-1.35.68-1.92,1.18-.57.5-1.06,1.08-1.47,1.75-.41.67-.72,1.39-.94,2.15h10.52Z"/>
        <path class="cls-1" d="M436.52,143.52l-4.5,1.3-.06-2.19,5.95-1.9h1.87l-5.99,22.33h-2.5l5.23-19.54Z"/>
        <path class="cls-1" d="M443.63,162.65c-1.15-.55-2.15-1.3-2.99-2.25l1.65-1.71c.72.78,1.5,1.39,2.34,1.84.84.44,1.83.66,2.95.66,1.99,0,3.77-.79,5.35-2.38.89-.87,1.64-1.93,2.25-3.18s.99-2.55,1.14-3.88c-.3.4-.65.8-1.06,1.2s-.89.76-1.43,1.08c-.54.32-1.14.58-1.79.78s-1.37.3-2.15.3c-1.08,0-2.05-.17-2.91-.51-.87-.34-1.6-.8-2.2-1.38-.6-.58-1.07-1.27-1.39-2.06-.33-.79-.49-1.64-.49-2.55,0-1.1.22-2.13.67-3.1.44-.97,1.06-1.83,1.84-2.57.78-.74,1.69-1.33,2.74-1.76s2.19-.65,3.44-.65c1.08,0,2.09.17,3.02.52.94.35,1.73.84,2.36,1.47.72.72,1.26,1.57,1.63,2.57.37.99.55,2.24.55,3.74,0,2.34-.41,4.5-1.22,6.48-.81,1.97-1.89,3.63-3.22,4.96-1.06,1.04-2.18,1.83-3.37,2.38-1.19.55-2.49.82-3.88.82s-2.67-.27-3.82-.82ZM452.9,152.42c.75-.32,1.39-.73,1.92-1.25s.94-1.11,1.24-1.77c.3-.66.44-1.35.44-2.07,0-1.3-.42-2.38-1.27-3.22-.95-.95-2.2-1.42-3.75-1.42-.89,0-1.7.16-2.45.47-.74.32-1.38.73-1.91,1.25-.53.52-.94,1.12-1.24,1.82-.3.69-.44,1.42-.44,2.18,0,.57.1,1.13.3,1.67.2.55.51,1.03.92,1.44s.93.74,1.56,1c.63.25,1.36.38,2.21.38.89,0,1.71-.16,2.46-.47Z"/>
        <path class="cls-1" d="M466.14,162.92c-.99-.31-1.86-.72-2.59-1.25-.73-.53-1.3-1.16-1.7-1.88-.4-.73-.6-1.5-.6-2.33,0-.89.17-1.68.51-2.38.34-.7.8-1.3,1.38-1.82.58-.52,1.26-.94,2.04-1.27s1.63-.58,2.53-.74c-.91-.36-1.67-.94-2.28-1.74s-.92-1.75-.92-2.85c0-.82.2-1.61.59-2.34.39-.74.94-1.39,1.65-1.95.71-.56,1.55-1,2.53-1.31.98-.32,2.06-.48,3.25-.48,1.1,0,2.1.14,3.01.43.91.29,1.69.68,2.36,1.19.66.51,1.18,1.11,1.55,1.81.37.7.55,1.47.55,2.31,0,.76-.14,1.46-.43,2.09-.28.63-.67,1.19-1.16,1.68-.49.49-1.07.9-1.74,1.24-.68.34-1.39.58-2.15.73.49.17.96.41,1.42.71.46.31.86.66,1.21,1.08s.63.88.85,1.41c.21.53.32,1.1.32,1.71,0,.91-.22,1.75-.65,2.53-.43.78-1.05,1.46-1.84,2.04-.79.58-1.73,1.04-2.82,1.36-1.09.33-2.28.49-3.57.49-1.21,0-2.31-.15-3.3-.46ZM472.1,160.91c.76-.21,1.41-.51,1.94-.9.54-.39.96-.86,1.26-1.39.31-.54.46-1.13.46-1.79,0-.53-.13-1.04-.39-1.54-.26-.5-.65-.93-1.15-1.3-.51-.37-1.11-.67-1.82-.89s-1.5-.33-2.39-.33c-.95,0-1.81.12-2.57.36-.77.24-1.42.57-1.94.97-.53.4-.94.87-1.23,1.41s-.44,1.1-.44,1.69c0,1.18.52,2.15,1.56,2.9,1.04.75,2.45,1.12,4.22,1.12.91,0,1.74-.1,2.5-.32ZM474.35,150.36c.69-.23,1.27-.54,1.74-.94.48-.39.83-.83,1.08-1.33.24-.5.36-1.01.36-1.54,0-1.12-.46-2.04-1.38-2.76-.92-.72-2.15-1.08-3.69-1.08-.82,0-1.57.1-2.23.32-.67.21-1.24.5-1.73.87-.49.37-.86.81-1.12,1.31-.26.51-.4,1.06-.4,1.65,0,.55.12,1.06.36,1.52.24.47.58.87,1.01,1.2.43.34.95.61,1.57.81s1.29.3,2.03.3c.91,0,1.7-.12,2.39-.35Z"/>
        <path class="cls-1" d="M497.08,143.17h-12.07l.63-2.28h15.05l-.54,1.87-14.76,20.3h-2.92l14.6-19.89Z"/>
      </g>
    </g>
  </g>
</svg>