<?xml version="1.0" encoding="UTF-8"?>
<svg id="Camada_2" data-name="Camada 2" xmlns="http://www.w3.org/2000/svg" viewBox="0 0 1432.54 336.81">
  <defs>
    <style>
      .cls-1 {
        fill: #191a51;
      }

      .cls-2 {
        fill: #86bc25;
      }
    </style>
  </defs>
  <g id="Layer_1" data-name="Layer 1">
    <path class="cls-1" d="M722.24,68.09c-22.41-23.42-53.68-35.13-93.72-35.13s-75.3,12.05-99.9,36.13c-24.1,23.58-36.42,56.18-36.88,97.7l-.1,2.52c0,31.59-7.53,53.68-22.5,70.81-11.05,12.57-25.45,20.48-43.37,23.81l-1.42.29c-5.93,1.02-12.13,1.54-18.79,1.54-20.02-.08-37.19-4.74-51.39-13.9l-1.14-.75-.67-.44c-4.46-3.2-8.76-6.87-12.68-11.07-16.19-17.44-24.39-41.29-24.39-71.54,0-7.72.46-14.99,1.52-21.88,3.35-20.08,11.53-37.01,24.41-50.78,17.15-18.29,39.17-27.56,65.77-27.97,2.39.04,4.85.12,7.24.29l.02-.17c20.67,1,40.21,7.53,58.51,19.73l.02-41.86c-18.02-8.32-38.82-12.45-62.46-12.45l-1.42.02-.75-.02-2.39.08c-2,.04-3.93.12-5.93.21-38.02,1.52-68.62,13.38-91.6,35.84-19.63,19.21-31.35,44.52-35.36,75.68-1.33,8.83-2,18.07-2,27.77,0,37.74,11.72,68.45,35.26,92.12,23.46,23.69,54.34,35.53,92.66,35.53l1.83-.04,1.21.04c2.31,0,4.48-.19,6.68-.25l.96-.04c37.07-1.48,67.1-13.53,89.79-36.49,22.79-23.08,34.88-53.28,36.22-90.75,0,0,.19-3,.19-4.6,0-31.39,8.01-56.03,24.12-73.89,16.11-17.88,37.94-26.81,65.58-26.81s49.08,8.64,64.06,25.91c14.97,17.3,22.5,41.9,22.5,73.82s-7.54,55.92-22.5,73.05c-14.98,17.11-36.32,25.68-64.06,25.68s-49.1-8.74-65.29-26.2c-3.14-3.39-5.93-7.1-8.49-10.99l-19.92,39.92c23.15,21,53.28,31.66,90.54,31.66,40.73,0,73.22-12.26,97.43-36.78,24.21-24.5,36.32-57.13,36.32-97.84s-11.26-74.05-33.74-97.49"/>
    <path class="cls-2" d="M51.08,138.91h147.61c0-21.92-5.99-39.63-18.06-53.05-12.07-13.42-29.28-20.07-51.55-20.07s-38.63,6.66-52.47,20.07c-13.86,13.42-22.37,31.12-25.54,53.05M247.53,174.16H50.53c.75,27.54,9.82,48.6,27.22,63.23,17.4,14.65,39.94,22.02,67.64,22.02,30.12,0,56.49-4.39,79.15-13.17l8.97,34.2c-26.75,11.22-58.36,16.84-94.85,16.84-42.29,0-75.95-11.76-101.03-35.26C12.55,238.52,0,207.3,0,168.38s12.09-71.56,36.11-97.86c24.04-26.31,56.32-39.48,96.91-39.48,37.44,0,66.15,11.66,86.17,35.09,20.02,23.41,30.03,52.08,30.03,85.92,0,9.66-.58,17.02-1.69,22.1"/>
    <path class="cls-1" d="M950.54,40.2s-18.42-6.96-61.18-6.63c-1.64.01-3.15.11-4.61.24-1.65.1-3.25.21-4.79.35-52.76,4.68-100.03,36.69-100.03,107.08v158.24h40.11l.31-156.27c.07-36.57,19.36-57.91,44.55-67.27,0,0,31.78-11.97,63.09-2.41,28.76,7.74,51.96,29.57,52.03,69.68l.12,60.78.03,15.3.16,80.2h40.09v-158.24c0-56.56-30.53-88.3-69.89-101.03"/>
    <path class="cls-2" d="M1314.14,186.13c-4.27-2.26-7.53-3.4-10.58-3.69l-3.06-.29v-22.1l3.56.18c6.36.34,13,2.4,20.18,6.23l79,38.81v-30.6l-89.1-44.99c-4.28-2.27-7.53-3.4-10.56-3.68l-3.07-.28v-22.11l3.56.18c6.36.34,13,2.4,20.2,6.24l78.97,39.87v-28.92l-88.92-44.26c-4.27-2.26-7.53-3.4-10.58-3.69l-3.06-.29v-22.07l3.54.17c6.36.33,13,2.37,20.22,6.23l78.8,39.22v-36.61c0-16.78-13.6-30.39-30.39-30.39h-217.44c-16.78,0-30.39,13.6-30.39,30.39v217.44c0,16.78,13.6,30.39,30.39,30.39h217.44c16.78,0,30.39-13.6,30.39-30.39v-47.22l-89.1-43.78Z"/>
    <path class="cls-1" d="M1297.45,73.04l3.06-.29v-22.07l-3.54.17c-6.36.33-13,2.37-20.22,6.23l-151.72,75.49v24.69l161.85-80.54c4.27-2.27,7.53-3.4,10.58-3.69M1297.61,126.01l3.07-.28v-22.11l-3.56.18c-6.36.34-13,2.4-20.2,6.24l-151.9,75.66v24.7l162.02-80.73c4.28-2.27,7.53-3.4,10.56-3.68M1300.68,182.16v-22.1l-3.56.18c-6.36.34-13,2.4-20.18,6.23l-151.92,73.43v24.56l162.02-78.32c4.27-2.27,7.53-3.4,10.58-3.69l3.06-.29Z"/>
    <path class="cls-1" d="M1147.26,17.43c-18.8,0-34.1,15.3-34.1,34.1v233.75c0,18.8,15.3,34.1,34.1,34.1h233.75c18.8,0,34.1-15.3,34.1-34.1V51.53c0-18.8-15.3-34.1-34.1-34.1h-233.75ZM1381.01,336.81h-233.75c-28.42,0-51.53-23.11-51.53-51.53V51.53c0-28.41,23.12-51.53,51.53-51.53h233.75c28.41,0,51.53,23.12,51.53,51.53v233.75c0,28.41-23.11,51.53-51.53,51.53"/>
  </g>
</svg>