<?xml version="1.0" encoding="UTF-8"?>
<svg id="Camada_2" data-name="Camada 2" xmlns="http://www.w3.org/2000/svg" viewBox="0 0 1052.35 251.5">
  <g id="Camada_1-2" data-name="Camada 1">
    <g>
      <path d="M32.55,184.83c20.05,19.68,46.55,30.45,72.77,29.58,27.88.53,54.19-10.46,74.09-30.95,19.68-20.26,30.82-47.22,31.37-75.91C210.03,48.04,163.4.02,106.59.02c-.39,0-.77,0-1.16,0h-.09c-.75-.02-1.49-.03-2.24-.03-25.98,0-51.86,10.99-71.31,30.36C11.03,51.04-.55,79.17.02,107.54c-.43,28.44,11.43,56.58,32.53,77.29ZM36.2,34.04C54.65,15.83,78.94,5.83,104.66,5.83c.25,0,.49,0,.74,0,25.88-.21,50.37,9.8,69.18,28.39,19.43,19.21,30.58,45.95,30.59,73.37-.05,27.32-11.44,54.05-31.25,73.33-18.39,17.9-41.85,27.68-66.27,27.68-.77,0-1.53,0-2.31-.03-25.3.61-49.68-9.19-68.51-27.52-19.71-19.19-31.08-45.96-31.19-73.46.15-28.15,11.01-54.26,30.56-73.56Z"/>
      <polygon points="156.72 42.18 135.6 79.89 156.72 79.11 156.72 103.75 107.7 103.75 83.56 61.41 104.68 49.11 115.24 67.57 136.35 29.86 156.72 42.18"/>
      <polygon points="23.22 95.29 65.46 95.29 54.9 76.8 76.02 64.5 100.15 107.59 76.02 149.93 54.9 137.6 65.46 119.14 23.22 119.14 23.22 95.29"/>
      <polygon points="135.84 185.86 114.71 148.15 104.16 166.62 83.04 154.3 107.17 111.98 156.2 111.98 156.2 136.61 135.08 136.61 156.2 174.31 135.84 185.86"/>
    </g>
    <g>
      <path d="M421.75,160.91h2.6v-36.1h11.4v-4.24h-47.09v4.24h19.3v12.03c0,18.39-14.23,26.79-27.44,26.79-10.94,0-16.75-1.91-23.08-7.49-9.44-8.37-14.05-24.15-14.05-48.28s3.87-56.85,37.29-56.85c25.95,0,32.59,20.11,35.07,31.85h2.64v-33.18h-3.12c-1.57,2.1-2.89,3.38-7.02,3.38-3.13,0-5.54-1.05-8.34-2.25-4.13-1.81-9.27-4.04-19.08-4.04-14.47,0-27.33,5.51-38.24,16.42-12.39,12.38-18.69,27.43-18.69,44.67,0,20.85,10.26,35.45,18.85,44.07,11.17,11.16,22.45,15.92,37.75,15.92,12.66,0,20.34-3.92,25.93-6.78,3.47-1.81,6.23-3.1,9.08-3.1s4.19.72,6.23,2.94Z"/>
      <path d="M641.45,80.11h2.61l.1-.34c7.55-25.89,21.76-25.88,29.38-25.88h8.89v107.28h-16.37v4.26h49.83v-4.26h-16.37V53.88h8.88c7.63,0,21.82,0,29.35,25.88l.11.34h2.61v-30.44h-99.02v30.44Z"/>
      <path d="M846.07,129.56c-.42,3.24-5.02,31.61-31.59,31.61h-30.01v-55.69h12.58c14.94,0,17.61,11.03,20.42,22.92l.18.75h2.61v-51.1h-2.59l-.12.35c-4.58,18.7-8.9,22.84-23.07,22.84h-10v-47.35h26.3c17.6,0,23.85,8.78,29.2,24.61h2.71v-28.83h-91.65v4.22h16.37v107.28h-16.37v4.26h97.8v-36.27h-2.69l-.05.4Z"/>
      <polygon points="989.78 53.88 989.78 49.66 954.87 49.66 924.78 134.67 895.54 49.66 858.42 49.66 858.42 53.88 875.77 53.88 875.77 161.17 859.97 161.17 859.97 165.43 896.07 165.43 896.07 161.17 880.24 161.17 880.24 57.93 917.94 166.55 956.34 58.29 956.34 161.17 939.99 161.17 939.99 165.43 989.78 165.43 989.78 161.17 973.42 161.17 973.42 53.88 989.78 53.88"/>
      <polygon points="1052.35 53.88 1052.35 49.66 1002.52 49.66 1002.52 53.88 1018.91 53.88 1018.91 161.17 1002.52 161.17 1002.52 165.43 1052.35 165.43 1052.35 161.17 1035.97 161.17 1035.97 53.88 1052.35 53.88"/>
      <path d="M452.58,53.88v74.77c0,25.63,14.06,39.18,40.64,39.18,15.68,0,26.57-4.05,33.25-12.91,6.28-8.31,7.57-16.3,7.57-25.3V53.88h15.69v-4.22h-36.1v4.22h15.82v73.05c0,15.02-2.29,19.54-6.41,24.99-5.96,7.91-14.9,11.46-27.52,11.46-18.14,0-25.85-10.04-25.85-33.64V53.88h16.35v-4.22h-49.8v4.22h16.36Z"/>
      <path d="M641.83,161.17l-43.46-114.42h-4.84l-43.19,114.42h-12.83v4.26h32.55v-4.26h-14.99l15.96-42.32h36.42l15.98,42.32h-15.76v4.26h47.57v-4.26h-13.41ZM605.73,114.61h-32.98l16.52-43.62,16.46,43.62Z"/>
      <polygon points="301.85 53.88 318.2 53.88 318.2 49.66 268.42 49.66 268.42 53.88 284.78 53.88 284.78 161.17 268.42 161.17 268.42 165.43 318.2 165.43 318.2 161.17 301.85 161.17 301.85 53.88"/>
    </g>
    <g>
      <path d="M1034.86,248.49l-19.73-51.93h-2.2l-19.6,51.93h-5.82v1.93h14.78v-1.93h-6.81l7.25-19.21h16.53l7.25,19.21h-7.15v1.93h21.59v-1.93h-6.09ZM1018.47,227.35h-14.97l7.5-19.8,7.47,19.8Z"/>
      <path d="M956.74,249.59c-2.62,0-6.21,0-9.48-1.88-3.89-2.25-6.49-6.75-7.95-13.45h-1.2v16.15h1.44c.32-.97.95-1.61,2.18-1.61,1.88,0,3.44.89,5.94,1.57,3.36.91,5.19,1.14,9.24,1.14,5.53,0,10.29-1.83,13.78-5.29,3.24-3.22,5.02-7.55,5.02-12.19,0-9.65-8.13-12.18-12.04-13.39-.22-.07-.43-.13-.62-.2l-8.86-2.78c-5.26-1.68-10.28-3.9-10.28-9.71,0-7.49,7.43-9.47,11.82-9.47,3.81,0,6.95.89,9.39,3.58,2.11,2.33,3.58,5.84,4.21,9.47h1.25v-13.66h-1.35c-.48,1.02-1.18,1.5-2.14,1.5-1.04,0-1.88-.38-3.04-.9-1.86-.85-4.18-1.91-8.38-1.91-4.6,0-8.75,1.57-11.7,4.42-2.93,2.83-4.54,6.79-4.54,11.15,0,6.48,3.75,10.51,12.15,13.08l8.42,2.56c6.41,1.95,9.51,5.55,9.51,10.51,0,1.89-.69,11.3-12.76,11.3Z"/>
      <path d="M980.79,241.95c-2.54,0-4.61,2.07-4.61,4.61s2.07,4.61,4.61,4.61,4.61-2.07,4.61-4.61-2.07-4.61-4.61-4.61Z"/>
      <path d="M1047.74,241.95c-2.54,0-4.61,2.07-4.61,4.61s2.07,4.61,4.61,4.61,4.61-2.07,4.61-4.61-2.07-4.61-4.61-4.61Z"/>
    </g>
  </g>
</svg>