<?xml version="1.0" encoding="UTF-8"?>
<svg id="Camada_2" data-name="Camada 2" xmlns="http://www.w3.org/2000/svg" viewBox="0 0 747.16 439.79">
  <defs>
    <style>
      .cls-1 {
        fill: #3a5e78;
      }
    </style>
  </defs>
  <g id="Camada_1-2" data-name="Camada 1">
    <g>
      <polygon class="cls-1" points="296.04 0 200.86 95.45 349.61 95.45 444.64 0 516.17 0 611.05 95.3 611.05 237.6 563.46 237.6 563.46 117.78 481.43 35.75 480.74 35.34 397.34 118.66 397.34 237.6 349.76 237.6 349.76 142.88 349.32 142.45 183.78 142.45 183.34 142.88 183.34 237.6 136.05 237.6 136.05 95.3 230.94 .44 274.32 .31 275.31 0 296.04 0"/>
      <path class="cls-1" d="M747.1,331.01v34.74l-12.86-.13c-.5-2.48-.59-5.18-.86-7.75-.36-.47-1.36,1.48-1.6,1.75-11.71,13.08-39.72,7.34-34-12.98,3.79-13.46,22.1-11.62,32.8-13.32,2.45-.39,1.73-2.34,1.14-4.29-2.4-7.94-18.35-7.06-19.36,1.4h-14.01c.04-11.4,10.04-17.28,20.29-18.39,13.38-1.44,27.87,2.8,28.19,18.51l.27.46ZM732.21,342.39c-4.08.45-8.32.56-12.37,1.21-2.96.47-6.54,1.21-7.46,4.5-.99,3.53,1.23,6.64,4.82,7.11,8.18,1.07,14.97-4.53,15.01-12.82Z"/>
      <path class="cls-1" d="M747.1,430.25c-.61,5.2-5.75,8.79-10.69,9.3-7.97.83-16.82-1.51-17.63-10.76h6.13c.13,6.71,12.63,7.75,15.19,3.07,2.07-3.78,0-6.38-3.74-7.37-5.95-1.57-16.08-.81-17.21-9.07-1.5-11.01,10.31-14.64,19.06-12.05,4.58,1.35,7.98,5.34,8.01,10.23h-6.13c.12-6.96-12.5-8.15-14.54-2.42-2.55,7.17,9.01,6.73,13.13,7.76,4.31,1.08,7.85,3.67,8.41,8.38.09.73.09,2.19,0,2.92Z"/>
      <path class="cls-1" d="M530.18,365.75h-15.18v-35.47c0-.4-.92-2.41-1.22-2.87-2.95-4.53-10.63-4-13.83.09-.82,1.05-2.18,4.16-2.18,5.41v32.84h-14.89v-34.88c0-.31-.79-2.34-1.01-2.78-2.57-5.19-10.66-4.89-14.03-.58-.82,1.05-2.18,4.16-2.18,5.41v32.84h-14.89v-52.83h13.14l.88,5.84c1.42-1.14,2.3-2.53,3.82-3.62,7.84-5.66,21.33-4.12,25.82,5.08l3.35-3.65c12.41-9.71,32.29-4.46,32.41,13.14v36.05Z"/>
      <polygon class="cls-1" points="290.2 293.06 290.2 322.25 320.85 322.25 320.85 293.06 336.62 293.06 336.62 365.75 320.85 365.75 320.85 335.1 290.64 335.1 290.2 335.53 290.2 365.75 274.43 365.75 274.43 293.06 290.2 293.06"/>
      <path class="cls-1" d="M10.8,293.06l37.71,55.27.83.49v-55.75h10.22v72.68h-11.09c-11.89-17.52-23.48-35.32-35.67-52.63-.61-.87-1.41-2.19-2.04-2.92-.26-.3-.28-.61-.83-.49v56.04H0v-72.68h10.8Z"/>
      <path class="cls-1" d="M397.34,365.75h-12.85l-.88-7.88c-2.15,2.76-4.15,4.67-7.33,6.24-12.58,6.24-31.7.77-28.5-15.94,2.91-15.16,23.12-13.29,34.65-15.13,1.54-9.34-10.42-11.57-16.54-7.63-2.07,1.33-2.65,2.81-3.45,5.02h-13.87c.35-11.25,9.78-17.11,20.04-18.35,8.96-1.08,21.29.45,26.14,9.11.89,1.59,2.58,6.23,2.58,7.93v36.63ZM382.46,342.39c-4.07.59-8.32.54-12.37,1.2s-8.3,2.22-7.46,7.39c.68,4.17,6.05,4.63,9.39,4.17,5.98-.81,10.96-6.71,10.44-12.77Z"/>
      <path class="cls-1" d="M567.78,311.83c19.24-.55,33.04,11.97,30.39,31.84-2.28,17.01-18.08,24.5-33.94,22.62-33.54-3.98-32.68-53.42,3.55-54.46ZM566.9,324.67c-8.91,1.02-12.65,9.34-11.58,17.54,1.96,14.97,24.22,15.69,27.32,1.41,2.42-11.17-3.77-20.33-15.74-18.95Z"/>
      <path class="cls-1" d="M658.93,365.75h-14.89v-33.42c0-.22-.51-1.89-.65-2.27-2.91-8.42-15.38-7.22-18.76.38-.37.83-1.32,3.75-1.32,4.52v30.79h-14.89v-52.83h14.01l.88,6.42,4.87-4.33c10.09-5.79,25.22-4.12,29.52,8.04.32.91,1.23,4.11,1.23,4.9v37.8Z"/>
      <path class="cls-1" d="M238.23,365.75h-8.76l-.29-9.34c-.67-.17-.48.13-.67.37-2.03,2.58-2.47,3.94-5.49,5.88-11.68,7.5-32.52,4.79-30.92-12.52,1.42-15.29,24.3-14.2,35.45-15.65.29-.04.98-.15,1.06-.46.49-7.18-3.1-12.23-10.41-12.9-6.78-.62-15.08,1.59-16.17,9.3h-9.05c-.11-10.55,10.17-16.59,19.69-17.23,10.27-.69,21.12,1.18,24.6,12.21.24.75.96,3.41.96,4v36.34ZM228.6,340.94c-5.53,1.04-11.5,1.1-16.99,2.13-3.74.7-8.66,2.36-9.44,6.61-1.3,7.1,5.22,9.47,11.12,9.07,8.94-.6,16.05-8.88,15.31-17.82Z"/>
      <path class="cls-1" d="M96.58,313.29c19.42-1.87,33.77,9.68,32.17,29.83-2.49,31.43-54.37,32.02-55.77-2.03-.59-14.46,9.05-26.4,23.6-27.8ZM98.04,321.75c-19.5,2.1-20.33,33.27-.34,36.08,13.93,1.96,23.1-8.23,20.76-21.92-1.78-10.45-10.24-15.25-20.41-14.15Z"/>
      <path class="cls-1" d="M442.01,312.33v14.01c-7.27-1.02-13.64,1.31-15.97,8.69-.24.75-.96,3.41-.96,4v26.71h-15.18v-52.83h13.43l1.31,8.18c2.72-7.19,10.01-10.31,17.37-8.76Z"/>
      <polygon class="cls-1" points="143.93 314.08 159.12 356.4 175.02 314.08 185.39 314.08 164.53 365.77 153.61 365.7 133.13 314.08 143.93 314.08"/>
      <rect class="cls-1" x="671.78" y="312.91" width="14.89" height="52.83"/>
      <polygon class="cls-1" points="453.84 403.11 471.79 429.38 471.79 403.11 477.92 403.11 477.92 439.3 471.5 439.3 453.69 413.03 453.69 439.3 447.56 439.3 447.56 403.11 453.84 403.11"/>
      <path class="cls-1" d="M0,439.3v-36.2h17.95c.19,0,1.76.4,2.13.5,8.1,2.17,9.52,12.7,2.4,16.87,5.28,2.2,7.15,8.14,4.81,13.28-1.43,3.15-5.96,5.55-9.34,5.55H0ZM5.84,418.58h10.66c.1,0,1.63-.63,1.87-.76,2.77-1.49,3.4-5.72,1.45-8.1-.39-.47-2.24-1.65-2.73-1.65H5.84v10.51ZM5.84,434.34h11.53c.12,0,2.05-.77,2.29-.92,2.83-1.67,3.07-6.71.75-8.84-.79-.73-3.2-1.62-4.22-1.62H5.84v11.38Z"/>
      <path class="cls-1" d="M218.32,402.61c14.11-.84,22.73,10.33,19.53,23.91-4.23,18-32.77,17.69-36.28-.92-2.22-11.8,4.36-22.25,16.74-22.99ZM217.73,408.15c-5.04.62-9.48,5.37-10.07,10.36-2.39,20.03,23.19,20.44,24.45,4.6.74-9.24-4.67-16.15-14.38-14.96Z"/>
      <path class="cls-1" d="M684.27,402.61c14.09-1.03,22.67,10.06,19.82,23.62-3.68,17.54-31.35,18.29-35.97.81-3.18-12.03,3.28-23.49,16.14-24.43ZM683.97,408.15c-14.79,1.8-13.71,27.78,3.39,26.15,15.91-1.52,14.56-28.34-3.39-26.15Z"/>
      <path class="cls-1" d="M177.07,403.11c13.26,1.28,14.79,18.82,1.91,21.76-.5.11-2.04-.08-1.76.56l11.68,13.87h-7.59l-11.24-13.72h-5.26l-.44.44v13.28h-5.84v-36.2c5.96.42,12.67-.57,18.54,0ZM164.81,408.36l-.44.44v11.68l.44.44h9.93c.63,0,2.83-.58,3.51-.87,4.32-1.82,4.38-8.98,0-10.81-.58-.24-2.73-.87-3.22-.87h-10.22Z"/>
      <path class="cls-1" d="M132.4,403.11c7.39.75,11.95,6.75,10.28,14.08-1.18,5.19-4.89,6.93-9.69,7.83-.37.07-.53-.21-.44.42l11.68,13.87h-7.44l-11.68-13.72h-4.96l-.44.44v13.28h-5.84v-36.2c5.93.44,12.7-.59,18.54,0ZM120.14,408.36l-.44.44v11.68l.44.44h9.93c.68,0,2.77-.57,3.47-.91,4.77-2.31,4.13-9.63-1.04-11.15-.35-.1-2.21-.49-2.43-.49h-9.93Z"/>
      <path class="cls-1" d="M621.56,439.3v-36.2h15.62c18.82,0,22.42,29.92,4.59,35.24-6.22,1.85-13.77.56-20.21.96ZM627.4,434.05h8.9c12.23,0,14.93-20.64,3.51-24.82-.66-.24-2.66-.87-3.22-.87h-9.2v25.69Z"/>
      <path class="cls-1" d="M279.98,413.62h-6.13c.31-7.66-14.82-8.17-14.78-.78.01,3,2.65,4.13,5.14,4.73,5.72,1.37,13.69.67,16.12,7.52,2.68,7.57-2.99,13.85-10.42,14.5-8.08.71-16.31-1.67-17.37-10.8h6.13c.41,7.21,14.61,8.07,15.93,1.48,1.4-6.97-9.9-6.24-14.33-7.6-5.08-1.56-7.94-4.77-7.4-10.33,1.3-13.42,27.36-12.99,27.11,1.28Z"/>
      <path class="cls-1" d="M432.96,439.3h-6.71l-2.66-7.85h-16.27s-2.68,7.85-2.68,7.85h-6.71l14.15-36.22,7.02.31,13.87,35.9ZM409.02,426.75h12.55l-5.99-17.22-6.57,17.22Z"/>
      <path class="cls-1" d="M75.62,439.3h-6.71l-2.66-7.85h-16.27s-2.68,7.85-2.68,7.85h-6.71l14.15-36.22,7.02.31,13.87,35.9ZM51.68,426.75h12.55l-5.99-17.22-6.57,17.22Z"/>
      <path class="cls-1" d="M571.64,439.3l13.75-36.16,7.14-.05,14.44,36.21h-6.57l-3.25-7.84-15.99-.06-2.81,7.9h-6.71ZM595.58,426.75l-6.13-17.51-6.42,17.51h12.55Z"/>
      <polygon class="cls-1" points="520.84 403.11 520.84 408.36 501.72 408.36 501.28 408.8 501.28 418.43 501.72 418.87 519.38 418.87 519.38 423.54 501.72 423.54 501.28 423.98 501.28 433.61 501.72 434.05 520.84 434.05 520.84 439.3 495.44 439.3 495.44 403.11 520.84 403.11"/>
      <path class="cls-1" d="M322.6,426.46v12.84h-5.84v-36.2h17.37c.86,0,3.42.83,4.34,1.21,11.19,4.62,7.94,22.14-5.21,22.14h-10.66ZM322.6,408.65v12.11l.44.44h10.22c.22,0,2.23-.73,2.59-.91,4.09-2.03,4.19-8.46.28-10.72-.31-.18-2.38-.92-2.58-.92h-10.95Z"/>
      <path class="cls-1" d="M558.21,403.11v27c0,4.65-5.1,8.99-9.52,9.45-9.05.94-15.05-3.24-14.37-12.77l5.8-.63c-.09,2.34-.14,5.14,1.77,6.84,2.47,2.2,7.85,1.8,9.57-1.19.18-.31.92-2.38.92-2.58v-20.87h-16.35v-5.25h22.19Z"/>
      <polygon class="cls-1" points="366.11 403.11 366.11 433.76 384.79 433.76 384.79 439.3 360.27 439.3 360.27 403.11 366.11 403.11"/>
      <path class="cls-1" d="M676.67,288.47c4.59-.62,10.44.22,12.11,5.26,2.86,8.65-6.05,13.4-13.56,10.93-8.41-2.76-7.53-14.98,1.46-16.19Z"/>
      <rect class="cls-1" x="90.21" y="403.11" width="6.13" height="36.2"/>
    </g>
  </g>
</svg>