<?xml version="1.0" encoding="UTF-8"?>
<svg id="Camada_2" data-name="Camada 2" xmlns="http://www.w3.org/2000/svg" viewBox="0 0 313.1 85.04">
  <defs>
    <style>
      .cls-1 {
        fill: #8dc63f;
      }

      .cls-1, .cls-2 {
        fill-rule: evenodd;
      }

      .cls-2 {
        fill: #007ac2;
      }

      .cls-3 {
        fill: #fff;
      }

      .cls-4 {
        fill: #6d6e71;
      }
    </style>
  </defs>
  <g id="Layer_1" data-name="Layer 1">
    <g>
      <path class="cls-3" d="M85.04,42.52c0,23.48-19.04,42.52-42.52,42.52S0,66,0,42.52,19.04,0,42.52,0s42.52,19.04,42.52,42.52"/>
      <path class="cls-1" d="M35.12,12.72c1.47-1.69,3.56-3.19,9.17-3.19,3.16,0,5.65,0,5.65,2.15,0,.54-.28,1.03-.76,1.68-.19.34-.46.63-.68.86-5.61,7.13-14.23,18.78-19.7,26.77,8.06-7.65,29.34-26.75,43.01-29.23C64.17,4.48,53.85,0,42.47,0,19.02,0,0,19.02,0,42.48c0,5.98,1.24,11.67,3.47,16.83C14.83,41.24,29.06,20.8,35.12,12.72"/>
      <path class="cls-2" d="M50.88,67.12c3.07,0,7.67-4.15,11.36-7.47,1.03-.93,2.01-1.81,2.93-2.59,5.02-4.56,10.38-9.71,15.88-15.31.23-.24,3.79-2.24,3.7-3.27-.62-6.63-2.75-12.81-6.06-18.2-2.04,3.67-5.86,8.89-11,15.81-7.97,10.73-17.89,24.09-17.89,29.81,0,.05.01,1.22,1.08,1.22"/>
      <path class="cls-2" d="M83.73,47.2c-1.23,1.39-2.48,2.78-3.91,4.21-1.67,1.67-5.13,5.06-9.58,9.02-2.55,2.43-5.48,4.9-9.18,7.76-7.1,5.37-12.67,7.98-17.05,7.98-4.84,0-7.61-2.72-7.61-7.47,0-10.41,11.74-25.8,20.31-37.04,2.8-3.67,5.92-7.76,6.87-9.6-.04.01-.08.02-.12.03l-.24.06c-.13.06-.27.1-.4.14l-.15.08c-20.25,10.19-45.34,38.15-51.97,48.27,7.78,8.77,19.13,14.31,31.77,14.31,22.51,0,40.91-17.51,42.36-39.65-.25.61-.61,1.24-1.11,1.91"/>
      <path class="cls-4" d="M106.63,57.51v-27.14c0-1.15-.2-2.03-.6-2.66-.4-.62-.89-1.1-1.46-1.42-.57-.32-1.18-.52-1.83-.6-.65-.08-1.25-.14-1.79-.19v-1.27l11.51-1.79v9.87h.15c.25-.7.66-1.61,1.23-2.73.57-1.12,1.33-2.21,2.28-3.25.95-1.05,2.1-1.96,3.48-2.73,1.37-.77,2.98-1.16,4.82-1.16,1.99,0,3.56.26,4.71.78,1.15.52,2.02,1.27,2.62,2.24.6.97.97,2.16,1.12,3.55.15,1.4.23,2.96.23,4.71v23.78h-5.83v-22.13c0-1.59-.03-2.98-.07-4.15-.05-1.17-.24-2.14-.56-2.92-.33-.77-.82-1.35-1.5-1.72-.67-.37-1.63-.56-2.88-.56-1.1,0-2.23.47-3.4,1.42-1.17.95-2.23,2.17-3.18,3.66-.95,1.5-1.72,3.17-2.32,5.01-.6,1.84-.9,3.66-.9,5.46v15.93h-5.83Z"/>
      <path class="cls-4" d="M154.75,58.34c-2.39,0-4.55-.41-6.47-1.23-1.92-.82-3.56-2.01-4.94-3.55-1.37-1.54-2.42-3.43-3.14-5.64-.73-2.22-1.08-4.72-1.08-7.51s.36-5.3,1.08-7.52c.72-2.22,1.77-4.1,3.14-5.64,1.37-1.54,3.02-2.73,4.94-3.55,1.92-.82,4.07-1.23,6.47-1.23s4.55.41,6.47,1.23c1.92.82,3.56,2.01,4.94,3.55,1.37,1.55,2.41,3.43,3.14,5.64.72,2.22,1.08,4.72,1.08,7.52s-.36,5.3-1.08,7.51c-.73,2.22-1.77,4.1-3.14,5.64-1.37,1.54-3.02,2.73-4.94,3.55-1.92.82-4.07,1.23-6.47,1.23M145.77,40.39c0,1.54.11,3.26.33,5.16.23,1.9.67,3.66,1.35,5.31.67,1.64,1.59,3.01,2.77,4.11,1.17,1.1,2.68,1.64,4.52,1.64s3.41-.55,4.56-1.64c1.14-1.1,2.06-2.47,2.73-4.11.67-1.65,1.12-3.41,1.35-5.31.22-1.89.33-3.61.33-5.16s-.11-3.27-.33-5.16c-.22-1.89-.67-3.66-1.35-5.31-.67-1.64-1.58-3.02-2.73-4.11-1.15-1.1-2.67-1.64-4.56-1.64s-3.35.55-4.52,1.64c-1.17,1.1-2.09,2.47-2.77,4.11-.67,1.64-1.12,3.41-1.35,5.31-.22,1.89-.33,3.61-.33,5.16"/>
      <path class="cls-4" d="M177.18,31.35c-.45-1.05-.88-1.98-1.31-2.81-.42-.82-.91-1.53-1.46-2.13-.55-.6-1.22-1.06-2.02-1.38-.8-.32-1.77-.51-2.92-.56v-1.27h10.69l11.29,27.21,10.32-27.21h4.04l-13.68,35.14h-3.51l-11.44-26.99Z"/>
      <path class="cls-4" d="M222.3,58.34c-2.39,0-4.55-.41-6.47-1.23-1.92-.82-3.57-2.01-4.94-3.55-1.37-1.54-2.42-3.43-3.14-5.64-.72-2.22-1.08-4.72-1.08-7.51s.36-5.3,1.08-7.52c.72-2.22,1.77-4.1,3.14-5.64,1.37-1.54,3.01-2.73,4.94-3.55,1.92-.82,4.07-1.23,6.47-1.23s4.55.41,6.47,1.23c1.92.82,3.56,2.01,4.93,3.55,1.37,1.55,2.42,3.43,3.14,5.64.72,2.22,1.09,4.72,1.09,7.52s-.36,5.3-1.09,7.51c-.72,2.22-1.77,4.1-3.14,5.64-1.37,1.54-3.02,2.73-4.93,3.55-1.92.82-4.08,1.23-6.47,1.23M213.32,40.39c0,1.54.11,3.26.34,5.16.22,1.9.67,3.66,1.35,5.31.67,1.64,1.59,3.01,2.77,4.11,1.17,1.1,2.68,1.64,4.52,1.64s3.41-.55,4.56-1.64c1.15-1.1,2.06-2.47,2.73-4.11.67-1.65,1.12-3.41,1.35-5.31.23-1.89.34-3.61.34-5.16s-.11-3.27-.34-5.16c-.22-1.89-.67-3.66-1.35-5.31-.67-1.64-1.58-3.02-2.73-4.11-1.15-1.1-2.67-1.64-4.56-1.64s-3.35.55-4.52,1.64c-1.17,1.1-2.1,2.47-2.77,4.11-.67,1.64-1.12,3.41-1.35,5.31-.22,1.89-.34,3.61-.34,5.16"/>
      <path class="cls-4" d="M244.46,12.06c0-1.1-.18-1.88-.56-2.35-.37-.47-.85-.77-1.42-.9-.57-.12-1.2-.16-1.87-.11-.67.05-1.29.05-1.83,0v-1.27l11.51-1.8v51.96h-5.83V12.06Z"/>
      <path class="cls-4" d="M287.98,57.67c-.45.1-1.13.24-2.06.41-.92.17-2.06.26-3.4.26-2.19,0-3.68-.51-4.45-1.53-.77-1.02-1.16-2.33-1.16-3.92h-.15c-1.15,1.69-2.57,3.03-4.26,4-1.7.97-3.81,1.46-6.36,1.46s-4.73-.8-6.43-2.39c-1.7-1.59-2.54-3.61-2.54-6.06,0-1.79.36-3.31,1.08-4.56.72-1.25,1.66-2.28,2.8-3.1,1.15-.82,2.43-1.46,3.85-1.91,1.42-.45,2.87-.8,4.34-1.05,1.47-.25,2.88-.41,4.22-.49,1.35-.07,2.49-.16,3.44-.26v-2.84c0-1.29-.04-2.63-.11-4-.08-1.37-.31-2.62-.71-3.74-.4-1.12-1.02-2.03-1.87-2.73-.85-.7-2.07-1.05-3.66-1.05-1.15,0-2.07.15-2.77.45-.7.3-1.23.7-1.61,1.2-.37.5-.61,1.05-.71,1.65-.1.6-.15,1.2-.15,1.79,0,.75-.12,1.37-.38,1.87-.25.5-.55.9-.9,1.2-.35.3-.74.51-1.16.64-.42.12-.79.19-1.09.19-1,0-1.84-.31-2.54-.94-.7-.62-1.05-1.43-1.05-2.43,0-1.2.4-2.25,1.2-3.18.8-.92,1.82-1.69,3.06-2.32,1.25-.62,2.59-1.08,4.04-1.38,1.44-.3,2.81-.45,4.11-.45,2.54,0,4.61.3,6.2.9,1.59.6,2.83,1.42,3.7,2.47.87,1.05,1.46,2.29,1.76,3.74.3,1.45.45,3.04.45,4.79v18.54c0,1.29.25,2.2.75,2.73.5.52,1.32.79,2.47.79.35,0,.68-.03,1.01-.07.33-.05.66-.12,1.01-.22v1.57ZM276.91,40.99c-.9,0-2.12.08-3.66.22-1.55.15-3.06.49-4.56,1.01-1.5.52-2.8,1.3-3.92,2.32-1.12,1.02-1.68,2.41-1.68,4.15,0,1.95.52,3.52,1.57,4.71,1.05,1.2,2.22,1.79,3.51,1.79,1.2,0,2.33-.27,3.4-.82,1.07-.55,2.01-1.27,2.8-2.17.79-.9,1.42-1.95,1.87-3.14.45-1.2.67-2.42.67-3.66v-4.41Z"/>
      <path class="cls-4" d="M293.66,57.51v-28.64c0-1.15-.19-1.96-.56-2.43-.37-.47-.85-.77-1.42-.9s-1.2-.15-1.87-.08c-.67.08-1.28.09-1.83.04v-1.27l11.51-1.79v8h.15c.35-.95.79-1.9,1.31-2.84.52-.95,1.17-1.81,1.94-2.58.77-.77,1.69-1.4,2.77-1.87,1.07-.47,2.31-.71,3.7-.71.85,0,1.68.29,2.5.86.82.57,1.23,1.43,1.23,2.58s-.35,1.96-1.05,2.58c-.7.62-1.54.94-2.54.94-.55,0-1.04-.14-1.46-.41-.42-.27-.8-.56-1.12-.86-.32-.3-.62-.58-.9-.86-.27-.27-.54-.41-.79-.41-.35,0-.83.24-1.46.71-.63.47-1.26,1.22-1.91,2.24-.65,1.02-1.21,2.33-1.68,3.93-.47,1.59-.71,3.51-.71,5.76v18.02h-5.83Z"/>
    </g>
  </g>
</svg>