<?xml version="1.0" encoding="UTF-8"?>
<svg id="Camada_2" data-name="Camada 2" xmlns="http://www.w3.org/2000/svg" viewBox="0 0 266.92 59.44">
  <defs>
    <style>
      .cls-1 {
        fill: red;
      }
    </style>
  </defs>
  <g id="Layer_1" data-name="Layer 1">
    <g>
      <g>
        <path d="M114.48,19.81c3.76,0,6.93.12,6.93,6.77s-3.17,6.7-6.93,6.7h-3.61v6.06c-1.11.28-1.74.28-2.06.28s-.83,0-2.06-.28v-19.53h7.73ZM114.52,29.68c1.23,0,2.77-.52,2.77-3.09s-1.55-2.77-2.77-2.77h-3.65v5.87h3.65Z"/>
        <path d="M133.69,20.37l5.59,18.58c-.79.6-1.62.68-2.26.68-.44,0-.95,0-1.94-.2l-1.74-5.86h-5.94l-1.78,5.86c-.95.2-1.5.2-1.86.2-.75,0-1.51-.08-2.34-.68l5.63-18.58c1.55-.59,2.46-.55,3.37-.55.79,0,1.7-.04,3.29.55ZM128.46,29.96h3.8l-1.9-6.34-1.9,6.34Z"/>
        <path d="M148.67,36.09c1.59,0,3.29-.43,3.29-2.18,0-2.68-11.09-2.33-11.09-8.35,0-4.27,3.05-5.75,7.85-5.75,1.82,0,4.83.31,6.85,1.05-.12,1.56-.24,2.18-1.07,3.61-1.31-.54-3.92-.82-5.71-.82-2.54,0-3.8.19-3.8,1.9,0,2.21,11.09,2.21,11.09,7.88s-3.84,6.18-7.45,6.18c-2.1,0-6.18-.35-7.96-2.02.04-1.28.36-2.14,1.74-3.22,2.14,1.24,5.03,1.71,6.26,1.71Z"/>
        <path d="M166.46,36.09c1.58,0,3.29-.43,3.29-2.18,0-2.68-11.09-2.33-11.09-8.35,0-4.27,3.05-5.75,7.85-5.75,1.82,0,4.83.31,6.85,1.05-.12,1.56-.24,2.18-1.07,3.61-1.31-.54-3.92-.82-5.71-.82-2.54,0-3.8.19-3.8,1.9,0,2.21,11.09,2.21,11.09,7.88s-3.84,6.18-7.45,6.18c-2.1,0-6.18-.35-7.96-2.02.04-1.28.36-2.14,1.74-3.22,2.14,1.24,5.03,1.71,6.26,1.71Z"/>
        <path d="M187.53,20.37l5.59,18.58c-.79.6-1.62.68-2.26.68-.44,0-.95,0-1.94-.2l-1.74-5.86h-5.94l-1.78,5.86c-.95.2-1.51.2-1.86.2-.75,0-1.51-.08-2.34-.68l5.63-18.58c1.55-.59,2.46-.55,3.37-.55.79,0,1.7-.04,3.29.55ZM182.3,29.96h3.8l-1.9-6.34-1.9,6.34Z"/>
        <path d="M203.02,19.81c3.76,0,6.93.12,6.93,6.77,0,3.21-.75,4.83-1.98,5.74l1.98,6.66c-.79.48-1.66.63-2.3.63-.44,0-1.03,0-1.98-.36l-1.78-5.98h-4.48v6.06c-1.11.28-1.74.28-2.06.28s-.83,0-2.06-.28v-19.53h7.73ZM203.06,29.68c1.23,0,2.77-.52,2.77-3.09s-1.55-2.77-2.77-2.77h-3.65v5.87h3.65Z"/>
        <path d="M217.44,31.54v4.44h9.47c.28.91.28,1.19.28,1.63s0,.95-.28,2.02h-13.59v-19.81h13.59c.28,1.23.28,1.7.28,2.02,0,.51,0,1.19-.2,1.98h-9.55v4.12h8.28c.28.92.28,1.15.28,1.59s0,1.03-.28,2.02h-8.28Z"/>
        <path d="M230.87,20.05c1.23-.28,1.78-.24,2.06-.24.32,0,.99,0,2.06.2v16.01h9.11c.28,1.23.28,1.43.28,1.78,0,.44,0,.6-.28,1.82h-13.23v-19.57Z"/>
        <path d="M246.84,20.05c1.23-.28,1.78-.24,2.06-.24.32,0,.99,0,2.06.2v16.01h9.11c.28,1.23.28,1.43.28,1.78,0,.44,0,.6-.28,1.82h-13.23v-19.57Z"/>
        <path d="M262.8,20.09c1.23-.28,1.66-.28,1.94-.28s.95,0,2.18.28v19.26c-1.23.28-1.9.28-2.18.28s-.71,0-1.94-.28v-19.26Z"/>
      </g>
      <path class="cls-1" d="M46.53,5.2C41.62,1.82,35.81,0,29.72,0c-7.94,0-15.4,3.09-21.01,8.71C3.09,14.32,0,21.78,0,29.72s3.09,15.4,8.7,21.01c5.61,5.61,13.08,8.71,21.01,8.71,6.09,0,11.9-1.82,16.81-5.2,0,0,0,0,0,0h0c4.91,3.38,10.72,5.2,16.81,5.2,7.94,0,15.4-3.09,21.01-8.71,5.61-5.61,8.7-13.08,8.7-21.01s-3.09-15.4-8.7-21.01C78.74,3.09,71.28,0,63.34,0c-6.09,0-11.9,1.82-16.81,5.2,0,0,0,0,0,0-.03.02-.06.04-.1.07-.02.01-.04.03-.06.04M67.55,33.92c2.32-2.32,2.32-6.08,0-8.4-1.58-1.58-3.82-2.08-5.83-1.52-.05.01-.09.03-.14.04-.02,0-.05.01-.07.02-.14.04-.27.09-.4.15-.18.07-.36.15-.53.24-.52.27-1.01.63-1.44,1.06l-11.86,11.86-4.95,4.95s-.07.07-.1.1c-.02.02-.04.04-.05.05,0,0,0,0,0,0-.03.02-.05.05-.08.07-.03.03-.05.05-.08.08-.03.03-.05.05-.08.08-.03.03-.05.05-.08.08-.02.02-.05.05-.07.07,0,0,0,0,0,0-.05.05-.11.1-.16.15-.05.05-.11.1-.17.15-.03.02-.06.05-.08.07-.05.04-.1.09-.15.13l-.02.02c-.05.05-.11.09-.16.14-.03.02-.05.04-.08.06,0,0,0,0-.01,0-.02.02-.04.03-.06.05-.04.03-.07.06-.11.09-.03.02-.05.04-.08.06-.08.06-.16.12-.24.18-.02.02-.04.03-.06.05-.03.02-.05.04-.08.06-.14.11-.29.21-.43.31-.78.55-1.61,1.02-2.46,1.43-2.37,1.14-4.99,1.73-7.69,1.73-9.83,0-17.83-8-17.83-17.83s8-17.83,17.83-17.83c2.71,0,5.32.6,7.69,1.73l-11.89,11.9c-2.32,2.32-2.32,6.08,0,8.4,1.16,1.16,2.68,1.74,4.2,1.74s3.04-.58,4.2-1.74l12.24-12.23,4.58-4.58c1.68-1.68,3.65-2.99,5.78-3.87,2.14-.88,4.45-1.35,6.83-1.35,9.83,0,17.83,8,17.83,17.83s-8,17.83-17.83,17.83c-2.71,0-5.32-.6-7.69-1.73l11.89-11.9Z"/>
    </g>
  </g>
</svg>