<?xml version="1.0" encoding="UTF-8"?>
<svg id="Camada_2" data-name="Camada 2" xmlns="http://www.w3.org/2000/svg" viewBox="0 0 428.38 66.93">
  <defs>
    <style>
      .cls-1 {
        fill: #00723f;
      }

      .cls-2 {
        fill: #ece9e7;
      }
    </style>
  </defs>
  <g id="arte">
    <g>
      <rect class="cls-1" width="428.38" height="66.93"/>
      <g>
        <path class="cls-2" d="M340.04,46.56v-26.19h3.8v26.19h-3.8Z"/>
        <path class="cls-2" d="M33.75,27.79c0-2.17-1.99-3.98-4.53-3.98-2.68,0-4.35,1.63-4.35,3.8,0,1.99,1.27,3.4,4.17,4.17.98.25,1.96.47,2.9.69,3.62.87,6.52,3.11,6.52,7.64,0,3.98-3.26,7.89-8.87,7.89-4.93,0-9.16-3.84-9.24-7.89l3.8-1.45c-.07,3.59,2.72,5.69,5.43,5.69,3.08,0,5.07-1.7,5.07-4.24,0-2.72-2.35-3.62-4.17-3.98-.87-.18-1.99-.47-2.9-.76-3.44-1.05-6.52-3.4-6.52-7.93,0-4.16,3.59-7.17,8.15-7.17s8.51,3.19,8.51,7.53h-3.98Z"/>
        <path class="cls-2" d="M81.19,20.91h15.94v3.62h-12.13v7.61h11.77v3.62h-11.77v7.97h12.13v3.62h-15.94v-26.44Z"/>
        <path class="cls-2" d="M152.35,20.19c7.79,0,13.94,6.16,13.94,13.94,0,3.15-1.01,6.05-2.75,8.37l4.2,4.13v.72h-4.27l-2.39-2.28c-2.39,1.88-5.4,3.01-8.73,3.01-7.79,0-13.94-6.16-13.94-13.94s6.16-13.94,13.94-13.94ZM152.9,37.21l2.54-2.72,5.47,5.43c1.01-1.63,1.59-3.59,1.59-5.79,0-6.01-4.17-10.32-10.14-10.32s-10.18,4.31-10.18,10.32,4.2,10.32,10.18,10.32c2.35,0,4.46-.69,6.12-1.88l-5.58-5.36Z"/>
        <path class="cls-2" d="M223.15,20.91h3.8v26.44h-2.9l-.54-1.45-.18-.18-.18.18c-1.09,1.27-3.98,2.17-5.98,2.17-5.07,0-8.33-3.62-8.33-8.69v-18.47h3.8v18.65c0,2.72,1.81,4.89,5.07,4.89,3.08,0,5.43-2.17,5.43-4.89v-18.65Z"/>
        <path class="cls-2" d="M395,20.25h3.98l9.05,26.44h-3.8l-2.35-6.88h-9.81l-2.32,6.88h-3.8l9.05-26.44ZM393.3,36.18h7.35l-3.66-10.86-3.69,10.86Z"/>
        <path class="cls-2" d="M298.8,21.8v-.72s-4.24.02-4.24.02l-2.34,2.38c-2.39-1.98-5.46-3.17-8.81-3.17-7.64,0-13.81,6.17-13.81,13.81s6.17,13.81,13.81,13.81,13.81-6.17,13.81-13.81c0-3.01-.97-5.79-2.6-8.06l4.19-4.27ZM283.4,44.36c-5.92,0-10.05-4.31-10.05-10.19s4.13-10.26,10.05-10.26,10.01,4.31,10.01,10.26-4.09,10.19-10.01,10.19Z"/>
      </g>
    </g>
  </g>
</svg>