<?xml version="1.0" encoding="UTF-8"?>
<svg id="Camada_2" data-name="Camada 2" xmlns="http://www.w3.org/2000/svg" viewBox="0 0 690.76 144.28">
  <defs>
    <style>
      .cls-1 {
        fill: #d5121e;
      }
    </style>
  </defs>
  <g id="Camada_1-2" data-name="Camada 1">
    <g>
      <g>
        <g>
          <path class="cls-1" d="M626.2,53.46c.49-1.04,1.08-1.85,1.88-2.61h0c.8-.75,1.71-1.33,2.89-1.81h0c1.1-.44,2.22-.66,3.56-.66h56.23v-19.83h-56.26c-3.91,0-7.69.72-11.2,2.17-.03.01-.05.02-.08.04h0s-.03.01-.03.01h-.02s0,.01,0,.01h0c-3.33,1.39-6.32,3.32-8.87,5.75h0s0,0,0,0h0s-.04.04-.07.06h0s0,0,0,0l-.06.06-.05.05h0c-2.56,2.48-4.6,5.41-6.08,8.69-1.54,3.42-2.31,7.12-2.31,10.94v.02h0v60.41h19.82v-34.01h60.3v-15.93h-60.3v-10.47c0-1.07.2-1.94.64-2.9"/>
          <path class="cls-1" d="M251.54,28.71l-36.11,88.06h21.77l7.92-20.13h36.36l7.42,20.13h22.02l-37.87-88.06h-21.51ZM262.74,50.35l11.95,30.95h-23.53l11.58-30.95Z"/>
          <path class="cls-1" d="M382.87,80.92c6.29-1.09,11.49-3.77,15.6-8.05,4.11-4.28,6.16-9.48,6.16-15.6,0-7.71-2.39-14.4-7.17-20.07-4.78-5.66-10.82-8.49-18.12-8.49h-64.41v88.07h20.88v-34.35h23.74l22.85,34.35h24.87l-24.4-35.86ZM373.44,65.57c-3.1,1.76-6.63,2.64-10.57,2.64h-27.05v-24.65h26.42c5.2,0,9.33,1.11,12.39,3.34,3.06,2.22,4.59,5.38,4.59,9.5s-1.93,7-5.79,9.18"/>
          <path class="cls-1" d="M478.76,80.92c6.29-1.09,11.49-3.77,15.6-8.05,4.11-4.28,6.16-9.48,6.16-15.6,0-7.71-2.39-14.4-7.17-20.07-4.78-5.66-10.82-8.49-18.11-8.49h-64.42v88.07h20.89v-34.35h23.73l22.86,34.35h24.87l-24.41-35.86ZM469.32,65.57c-3.1,1.76-6.63,2.64-10.56,2.64h-27.05v-24.65h26.42c5.2,0,9.33,1.11,12.39,3.34,3.07,2.22,4.59,5.38,4.59,9.5s-1.93,7-5.79,9.18"/>
          <path class="cls-1" d="M542.81,28.71l-36.11,88.06h21.76l7.93-20.13h36.36l7.42,20.13h22.02l-37.87-88.06h-21.51ZM554,50.35l11.95,30.95h-23.53l11.58-30.95Z"/>
        </g>
        <polygon class="cls-1" points="234.96 28.75 233.17 28.75 233.17 28.71 147.63 28.71 147.63 28.75 147.09 28.75 147.09 49.14 179.96 49.14 179.96 116.77 200.34 116.77 200.34 49.14 234.96 49.14 234.96 28.75"/>
      </g>
      <g>
        <polygon class="cls-1" points="126.56 .4 29.51 .41 48.84 33.72 93.89 33.72 94.13 112.53 113.47 144.26 126.56 144.28 126.56 .4"/>
        <path class="cls-1" d="M79.03,111.84h-31.9c-2.19,0-4.03-.37-5.82-1.09h0s0,0,0,0c-1.94-.79-3.43-1.74-4.74-2.96h0c-1.31-1.23-2.27-2.56-3.08-4.27-.72-1.58-1.04-3-1.05-4.75l-.21-65.1L13.21.49H.11v-.49H0v98.77H0v.04c0,6.25,1.26,12.3,3.79,17.9,2.41,5.37,5.76,10.17,9.94,14.22h0s0,0,0,0l.08.09.1.1h0s0,0,0,0h0s0,0,0,0c.03.03.07.06.11.1,4.17,3.98,9.06,7.13,14.51,9.4h0s.04.02.04.02l.04.02h0s.08.04.13.06c5.74,2.38,11.92,3.54,18.32,3.55h0s.03,0,.03,0h51.32l-19.38-32.44Z"/>
      </g>
    </g>
  </g>
</svg>