<?xml version="1.0" encoding="UTF-8"?>
<svg id="Camada_2" data-name="Camada 2" xmlns="http://www.w3.org/2000/svg" viewBox="0 0 724.7 330.08">
  <defs>
    <style>
      .cls-1 {
        fill: #100e34;
      }

      .cls-2 {
        fill: #ffbf18;
      }
    </style>
  </defs>
  <g id="Camada_1-2" data-name="Camada 1">
    <g>
      <g>
        <g>
          <path class="cls-1" d="M255.86,176.8h-12.61c-1,0-1.81.81-1.81,1.81v44.3c0,1.75-2.24,2.48-3.27,1.06l-33.8-46.43c-.34-.47-.88-.74-1.46-.74h-12.15c-1,0-1.81.81-1.81,1.81v74.68c0,1,.81,1.81,1.81,1.81h12.61c1,0,1.81-.81,1.81-1.81v-43.91c0-1.75,2.23-2.48,3.27-1.07l33.8,46.05c.34.46.88.74,1.46.74h12.16c1,0,1.81-.81,1.81-1.81v-74.68c0-1-.81-1.81-1.81-1.81Z"/>
          <path class="cls-1" d="M482.76,222.98c7.64-3.66,13.01-11.5,13.01-21.94.08-14.6-10.57-24.23-23.26-24.23h-36.76c-1,0-1.81.81-1.81,1.81v74.68c0,1,.81,1.81,1.81,1.81h13.05c1,0,1.81-.81,1.81-1.81v-26.21c0-1,.81-1.81,1.81-1.81h11.91c.75,0,1.43.47,1.69,1.17l10.35,27.48c.27.71.94,1.17,1.69,1.17h14.71c1.32,0,2.19-1.37,1.64-2.56l-12.47-27.2c-.41-.88-.05-1.94.83-2.36ZM471.18,211.53h-18.77c-1,0-1.81-.81-1.81-1.81v-17.32c0-1,.81-1.81,1.81-1.81h18.77c4.5,0,8.55,3.75,8.51,10.43,0,6.8-4.05,10.51-8.51,10.51Z"/>
          <path class="cls-1" d="M722.89,176.82h-14.49c-.66-.01-1.26.34-1.58.91l-16.77,29.99c-.69,1.24-2.47,1.24-3.16,0l-16.7-29.99c-.32-.57-.93-.93-1.58-.93h-14.51c-1.39.01-2.26,1.52-1.56,2.73l27.17,46.93c.16.28.24.59.24.91v25.92c0,1,.81,1.81,1.81,1.81h13.05c1,0,1.81-.81,1.81-1.81v-26c0-.32.09-.64.25-.92l27.58-46.83c.71-1.21-.16-2.73-1.56-2.73Z"/>
          <path class="cls-1" d="M100.06,176.8h-11.25c-.8,0-1.51.53-1.73,1.29l-15.28,51.45c-.51,1.73-2.96,1.73-3.47,0l-9.55-32.15c-.1-.33-.1-.67,0-1l4.8-17.31c.32-1.15-.55-2.29-1.74-2.29h-21.77c-1.2,0-2.06,1.14-1.74,2.29l4.8,17.31c.09.33.09.67,0,1l-9.55,32.15c-.51,1.73-2.96,1.73-3.47,0l-15.28-51.45c-.23-.77-.93-1.29-1.73-1.29H1.81c-1.2,0-2.06,1.14-1.74,2.29l20.71,74.68c.22.78.93,1.33,1.74,1.33h18.59c.81,0,1.53-.54,1.74-1.33l6.34-22.86c.49-1.77,3-1.77,3.49,0l6.34,22.86c.22.78.93,1.33,1.74,1.33h18.59c.81,0,1.53-.54,1.74-1.33l20.71-74.68c.32-1.15-.55-2.29-1.74-2.29Z"/>
          <path class="cls-1" d="M168.46,176.8h-43.3c-.8,0-1.51.53-1.73,1.29l-22.18,74.68c-.34,1.16.52,2.32,1.73,2.32h12.72c.81,0,1.53-.54,1.74-1.33l3.55-12.81c.22-.78.93-1.33,1.74-1.33h29.49c1,0,1.81.81,1.81,1.81v11.84c0,1,.81,1.81,1.81,1.81h12.61c1,0,1.81-.81,1.81-1.81v-74.68c0-1-.81-1.81-1.81-1.81ZM154.05,224.06c0,1-.81,1.81-1.81,1.81h-24.67c-1.2,0-2.06-1.14-1.74-2.29l8.78-31.66c.22-.78.93-1.33,1.74-1.33h15.89c1,0,1.81.81,1.81,1.81v31.66Z"/>
          <path class="cls-1" d="M415.6,241.32h-36.42c-1,0-1.81-.81-1.81-1.81v-18.91c0-1.46,1.64-2.32,2.84-1.49l8.44,5.84c.3.21.66.32,1.03.32h11.4c1,0,1.81-.81,1.81-1.81v-10.16c0-1-.81-1.81-1.81-1.81h-21.9c-1,0-1.81-.81-1.81-1.81v-17.29c0-1,.81-1.81,1.81-1.81h35.31c1,0,1.81-.81,1.81-1.81v-10.16c0-1-.81-1.81-1.81-1.81h-51.97c-1,0-1.81.81-1.81,1.81v74.68c0,1,.81,1.81,1.81,1.81h53.09c1,0,1.81-.81,1.81-1.81v-10.16c0-1-.81-1.81-1.81-1.81Z"/>
          <path class="cls-1" d="M637.11,241.32h-36.42c-1,0-1.81-.81-1.81-1.81v-14.23h0v-4.68c0-1.46,1.64-2.32,2.84-1.49l8.44,5.84c.3.21.66.32,1.03.32h11.4c1,0,1.81-.81,1.81-1.81v-10.16c0-1-.81-1.81-1.81-1.81h-21.9c-1,0-1.81-.81-1.81-1.81v-17.29c0-1,.81-1.81,1.81-1.81h35.31c1,0,1.81-.81,1.81-1.81v-10.16c0-1-.81-1.81-1.81-1.81h-51.97c-1,0-1.81.81-1.81,1.81v74.68c0,1,.81,1.81,1.81,1.81h53.09c1,0,1.81-.81,1.81-1.81v-10.16c0-1-.81-1.81-1.81-1.81Z"/>
          <path class="cls-1" d="M307.69,176.8h-29.55c-1,0-1.81.81-1.81,1.81v74.68c0,1,.81,1.81,1.81,1.81h29.55c23.29,0,38.63-16.64,38.63-39.15s-15.34-39.15-38.63-39.15ZM306.35,241.32h-11.54c-1,0-1.81-.81-1.81-1.81v-47.11c0-1,.81-1.81,1.81-1.81h11.54c14.07,0,23.01,9.94,23.01,25.36s-8.94,25.37-23.01,25.37Z"/>
          <path class="cls-1" d="M563.88,241.32h-31.5c-1,0-1.81-.81-1.81-1.81v-60.9c0-1-.81-1.81-1.81-1.81h-13.05c-1,0-1.81.81-1.81,1.81v74.68c0,1,.81,1.81,1.81,1.81h48.17c1,0,1.81-.81,1.81-1.81v-10.16c0-1-.81-1.81-1.81-1.81Z"/>
        </g>
        <g>
          <path class="cls-1" d="M203.88,295.78c3.44,0,7.28,1.19,10.67,3.49l1.14-3.14c-3.65-2.83-7.96-4.29-11.79-4.29-9.01-.06-14.96,7.04-14.96,15.89s5.95,15.89,14.96,15.89c3.79,0,8.14-1.47,11.79-4.29l-1.14-3.13c-3.39,2.29-7.24,3.52-10.65,3.52-6.33,0-10.65-5.09-10.65-11.99s4.31-11.99,10.62-11.95Z"/>
          <path class="cls-1" d="M237.32,291.84c-9.03,0-14.98,7.04-14.98,15.89s5.96,15.89,14.98,15.89,14.98-7.1,14.98-15.89-5.9-15.89-14.98-15.89ZM237.32,319.68c-6.34,0-10.67-5.05-10.67-11.95s4.32-11.95,10.64-11.95,10.7,5.04,10.7,11.95-4.28,11.95-10.67,11.95Z"/>
          <polygon class="cls-1" points="281.12 315.45 263.72 292.45 260.07 292.45 260.07 323.01 264.22 323.01 264.22 300.01 281.61 323.01 285.27 323.01 285.27 292.45 281.12 292.45 281.12 315.45"/>
          <path class="cls-1" d="M304.37,305.62c-6.37-1.7-7.53-2.5-7.56-4.87,0-3.66,2.65-5.06,6.66-5.06,3.7,0,6.62,1.19,8.78,2.94l2.27-2.86c-2.65-2.34-6.57-3.93-10.99-3.93-5.36,0-11.03,2.35-11.03,8.89.03,4.77,2.99,6.6,10.75,8.71,4.55,1.23,7.57,1.78,7.58,5.1.01,3.48-3.37,5.31-7.15,5.29-3.28.02-7.46-1.45-9.71-4.23l-2.27,2.83c2.52,3.1,7.37,5.2,11.99,5.2,5.43,0,11.55-2.91,11.46-9.21-.09-6.26-6.02-7.52-10.77-8.79Z"/>
          <polygon class="cls-1" points="318.75 295.94 328.74 295.94 328.74 323.01 332.93 323.01 332.93 295.94 342.91 295.94 342.91 292.45 318.75 292.45 318.75 295.94"/>
          <path class="cls-1" d="M370.8,301.64c.03-5.54-4.01-9.19-8.82-9.19h-13.28v30.55h4.15v-12.18h7.89s6.66,12.18,6.66,12.18h4.93l-7.43-12.65c3.4-1.15,5.9-4.33,5.9-8.71ZM352.85,307.34v-11.4h9.13c2.49,0,4.53,2.06,4.51,5.68,0,3.68-2.03,5.72-4.51,5.72h-9.13Z"/>
          <path class="cls-1" d="M398.87,312.67c0,4.32-3.14,7.3-8.3,7.3s-8.3-2.99-8.3-7.3v-20.21h-4.15v20.21c0,6.06,4.95,10.95,12.45,10.95s12.45-4.89,12.45-10.95v-20.21h-4.15v20.21Z"/>
          <path class="cls-1" d="M425.72,295.78c3.44,0,7.28,1.19,10.67,3.49l1.14-3.14c-3.65-2.83-7.96-4.29-11.79-4.29-9.01-.06-14.96,7.04-14.96,15.89,0,7.79,4.68,14.24,12.01,15.61l-3.39,6.74h4.33l3.28-6.53c3.47-.29,7.27-1.72,10.52-4.23l-1.14-3.13c-3.39,2.29-7.24,3.52-10.65,3.52-6.33,0-10.65-5.09-10.65-11.99s4.31-11.99,10.62-11.95Z"/>
          <path class="cls-1" d="M455.91,286.27c.68,0,1.44.41,2.2.86,1.09.66,2.32,1.45,4.2,1.45,2.58-.03,3.8-1.53,5.53-3.6l-2.42-1.53c-1.22,1.57-2.15,2.26-3.03,2.24-.63.01-1.31-.36-2.12-.85-1.09-.65-2.55-1.48-4.21-1.48-2.79,0-4.47,2.3-5.59,3.63l2.43,1.53c1.2-1.51,2.12-2.26,3.02-2.25Z"/>
          <path class="cls-1" d="M459.17,291.84c-9.03,0-14.98,7.04-14.98,15.89s5.96,15.89,14.98,15.89,14.98-7.1,14.98-15.89-5.9-15.89-14.99-15.89ZM459.17,319.67c-6.34,0-10.67-5.05-10.67-11.95s4.32-11.95,10.64-11.95,10.7,5.04,10.7,11.95-4.28,11.95-10.67,11.95Z"/>
          <polygon class="cls-1" points="486.29 308.75 500.53 308.75 500.53 305.26 486.29 305.26 486.29 295.94 502.23 295.94 502.23 292.45 482.15 292.45 482.15 323.01 502.67 323.01 502.67 319.52 486.29 319.52 486.29 308.75"/>
          <path class="cls-1" d="M519.8,305.62c-6.37-1.7-7.53-2.5-7.56-4.87,0-3.66,2.65-5.06,6.66-5.06,3.7,0,6.62,1.19,8.78,2.94l2.27-2.86c-2.65-2.34-6.57-3.93-10.99-3.93-5.36,0-11.03,2.35-11.03,8.89.03,4.77,2.99,6.6,10.75,8.71,4.55,1.23,7.57,1.78,7.58,5.1.01,3.48-3.37,5.31-7.15,5.29-3.28.02-7.46-1.45-9.71-4.23l-2.27,2.83c2.52,3.1,7.37,5.2,11.99,5.2,5.43,0,11.55-2.91,11.46-9.21-.09-6.26-6.02-7.52-10.77-8.79Z"/>
        </g>
      </g>
      <path class="cls-2" d="M492.9,33.21L446.04.81c-2.99-2.07-7.07.07-7.07,3.71v69.74c0,3.11-2.52,5.64-5.64,5.64h-37.17c-3.11,0-5.64-2.52-5.64-5.64v-36.41c0-1.85-.91-3.58-2.43-4.63L341.24.81c-2.99-2.07-7.07.07-7.07,3.71v69.74c0,3.11-2.52,5.64-5.64,5.64h-37.17c-3.11,0-5.64-2.52-5.64-5.64v-36.41c0-1.85-.91-3.58-2.43-4.63L236.44.81c-2.99-2.07-7.07.07-7.07,3.71v81.56c0,1.85.91,3.58,2.43,4.63l51.35,35.51c.94.65,2.06,1,3.21,1h48.96c3.11,0,5.64-2.52,5.64-5.64v-19.27c0-3.64,4.08-5.78,7.07-3.71l39.93,27.61c.94.65,2.06,1,3.21,1h48.96c3.11,0,5.64-2.52,5.64-5.64v-34.99c0-3.11,2.52-5.64,5.64-5.64h38.3c3.11,0,5.64-2.52,5.64-5.64v-37.48c0-1.85-.91-3.58-2.43-4.63Z"/>
    </g>
  </g>
</svg>